<svg xmlns="http://www.w3.org/2000/svg" xml:space="preserve" viewBox="0 0 512 512"><path fill="#0095BB" d="M303 1c14.354 0 28.708 0 43.464.336-.941 2-2.146 3.802-3.648 5.307-28.933 28.988-57.931 57.911-86.788 86.975-1.805 1.817-2.56 4.678-4.111 7.198-11.227 3.053-17.159 10.569-20.09 21.239-1.197.553-2.196.893-2.869 1.561-11.635 11.567-23.26 23.143-34.782 34.822-1.058 1.072-1.402 2.85-2.504 4.37-9.008.789-17.781.613-26.13 2.41-20.14 4.335-36.481 14.42-41.744 35.721-2.117 8.568-.675 18.015-1.21 27.082-2.345 1.416-4.586 2.557-6.281 4.247-36.63 36.532-73.19 73.134-109.812 109.673C4.901 343.532 2.842 344.658 1 346c0-14.02 0-28.042.34-42.6 2.375-1.955 4.666-3.113 6.403-4.831 12.266-12.132 24.418-24.377 36.605-36.588 28.591-28.646 57.157-57.319 85.78-85.935 31.313-31.306 62.686-62.553 94.019-93.84 22.418-22.385 44.876-44.733 67.166-67.246C295.568 10.662 299.123 5.67 303 1"/><path fill="#009CC3" d="M302.531 1c-3.409 4.671-6.963 9.662-11.218 13.96-22.29 22.513-44.748 44.86-67.166 67.247-31.333 31.286-62.706 62.533-94.02 93.84-28.622 28.615-57.188 57.288-85.78 85.934-12.186 12.21-24.338 24.456-36.604 36.588-1.737 1.718-4.028 2.876-6.403 4.362a891 891 0 0 1-.004-42.53c1.765-1.643 3.333-2.61 4.601-3.878C89.532 172.972 173.107 89.4 256.645 5.793 258.002 4.434 258.892 2.608 260 1z"/><path fill="#003357" d="M513 349c0 19.02 0 38.042-.379 57.575-.793 1.348-1.424 2.144-1.59 3.027-4.2 22.35-13.902 42.233-28.627 59.295-19.089 22.117-43.292 36.16-72.056 42.09-1.203.248-2.236 1.323-3.348 2.013-19.02 0-38.042 0-57.463-.34a54.2 54.2 0 0 1 6.715-8.494c6.796-7.012 13.686-13.932 20.57-20.856 6.174-6.21 12.395-12.375 18.588-18.567 7.137-7.137 14.262-14.286 21.399-21.424 6.192-6.192 12.395-12.374 18.588-18.566 7.137-7.137 14.266-14.283 21.402-21.42 6.192-6.193 12.392-12.378 18.584-18.57 7.138-7.137 14.158-14.397 21.444-21.377 5.207-4.988 10.77-9.604 16.173-14.386"/><path fill="#00B4DB" d="M107 1c16.688 0 33.375 0 50.513.36-.586 2.002-1.358 3.906-2.695 5.246A96170 96170 0 0 1 6.434 154.96C5.019 156.37 2.829 157.004 1 158c0-16.688 0-33.375.347-50.221.754-.665 1.47-1.14 1.524-1.682 1.4-13.834 6.781-26.35 13.253-38.359 9.85-18.277 23.291-33.523 40.653-45.066C71.667 12.77 87.77 5.725 105.569 2.896c.563-.09.958-1.24 1.431-1.896"/><path fill="#00A4CB" d="M259.531 1c-.639 1.608-1.529 3.434-2.886 4.793A521345 521345 0 0 1 5.937 256.523c-1.268 1.267-2.836 2.235-4.6 3.41a687 687 0 0 1 .01-37.527c2.259-1.8 4.45-2.787 6.041-4.376A194730 194730 0 0 0 218.164 7.23C219.841 5.55 220.74 3.094 222 1z"/><path fill="#003F63" d="M316 513c-12.354 0-24.708 0-37.464-.336.706-1.765 1.674-3.333 2.942-4.602 75.094-75.139 150.205-150.261 225.382-225.318 1.65-1.646 4.076-2.513 6.14-3.744 0 12.02 0 24.042-.336 36.599-1.766 1.643-3.334 2.612-4.603 3.88A285104 285104 0 0 0 319.36 508.204c-1.359 1.36-2.25 3.187-3.359 4.796"/><path fill="#00466A" d="M513 278.531c-2.064 1.7-4.49 2.567-6.14 4.213-75.177 75.057-150.288 150.18-225.382 225.318-1.268 1.269-2.236 2.837-3.41 4.602a493 493 0 0 1-31.532 0c.707-1.766 1.676-3.335 2.945-4.605a557203 557203 0 0 1 258.722-258.7c1.36-1.359 3.188-2.25 4.797-3.359z"/><path fill="#004B6F" d="M513 245.531c-1.61 1.578-3.437 2.47-4.797 3.828a557203 557203 0 0 0-258.722 258.7c-1.269 1.27-2.238 2.839-3.414 4.605-7.088.336-14.109.336-21.586-.028.93-2.35 2.056-4.594 3.74-6.282 46.87-46.964 93.8-93.87 140.7-140.806 1.512-1.513 2.798-3.254 4.622-4.915 4.012-.454 7.74-.39 11.146-1.402 10.894-3.236 21.935-15.988 15.434-34.23 2.15-1.504 4.105-2.778 5.721-4.392 33.562-33.5 67.066-67.056 100.668-100.514 1.768-1.761 4.308-2.748 6.488-4.095z"/><path fill="#00385D" d="M316.469 513c.64-1.61 1.531-3.436 2.89-4.796A285104 285104 0 0 1 508.06 319.479c1.269-1.268 2.837-2.237 4.603-3.412.336 10.62.336 21.308.336 32.464-5.404 5.251-10.966 9.867-16.173 14.855-7.286 6.98-14.306 14.24-21.444 21.377-6.192 6.192-12.392 12.377-18.584 18.57-7.136 7.137-14.265 14.283-21.402 21.42-6.193 6.192-12.396 12.374-18.588 18.566-7.137 7.138-14.262 14.287-21.4 21.424-6.192 6.192-12.413 12.356-18.587 18.567-6.884 6.924-13.774 13.844-20.57 20.856-2.507 2.587-4.751 5.43-7.184 8.495-10.756.339-21.443.339-32.6.339"/><path fill="#006085" d="M137 513c-9.688 0-19.375 0-29.483-.397-5.123-1.855-9.825-3.312-14.45-5.093.978-1.5 1.757-2.797 2.795-3.836a87267 87267 0 0 1 111.666-111.627c1.353-1.349 3.253-2.149 5.161-3.017 7.153 8.863 15.527 15.74 25.174 21.164-1.524 1.757-2.836 3.265-4.246 4.675-30.854 30.872-61.73 61.722-92.551 92.629-1.593 1.597-2.721 3.657-4.066 5.502"/><path fill="#00AAD1" d="M221.531 1c-.792 2.094-1.69 4.55-3.367 6.23A194730 194730 0 0 1 7.388 218.03c-1.59 1.59-3.782 2.577-6.04 3.907C1 214.312 1 206.625 1.34 198.4c3.878-3.737 7.507-6.842 10.934-10.155 9.153-8.85 18.3-17.708 27.297-26.715 9.47-9.48 18.677-19.22 28.155-28.692 9.124-9.117 18.538-17.944 27.656-27.066 9.354-9.358 18.402-19.022 27.769-28.368 11.935-11.909 24.097-23.591 36.085-35.449 10.581-10.466 21.134-20.964 31.531-31.613C193.5 7.542 195.607 4.13 198 1z"/><path fill="#008DB4" d="M1 346.469c1.842-1.811 3.9-2.937 5.495-4.528 36.622-36.54 73.182-73.141 109.812-109.673 1.695-1.69 3.936-2.831 6.455-3.91 3.526 8.237 6.52 16.154 9.302 24.37-2.51 2.472-4.864 4.59-7.1 6.824C85.48 299.014 46.018 338.5 6.504 377.932 4.907 379.528 2.845 380.656 1 382z"/><path fill="#0088AE" d="M1 382.469c1.845-1.814 3.907-2.942 5.504-4.536 39.514-39.433 78.976-78.919 118.46-118.381a87 87 0 0 1 7.363-6.564c3.29 3.013 6.107 6.067 8.279 8.422-5.304 11.277-10.785 22.932-16.632 34.642-6.285 5.28-12.363 10.34-18.086 15.773-6.818 6.473-13.342 13.258-19.976 19.924-6.88 6.914-13.729 13.862-20.615 20.77-6.292 6.313-12.62 12.587-18.923 18.887-7.016 7.013-13.963 14.094-21.046 21.038-7.077 6.938-14.284 13.743-21.754 20.372C2.502 410.721 1.75 408.861 1 407z"/><path fill="#005175" d="M513 215.531c-2.18 1.816-4.72 2.803-6.488 4.564-33.602 33.458-67.106 67.015-100.668 100.514-1.616 1.614-3.572 2.888-5.989 4.194-3.52-6.426-8.796-10.059-14.787-13.15 1.177-1.762 2.148-3.327 3.415-4.596 39.88-39.928 79.781-79.836 119.724-119.701 1.36-1.357 3.185-2.248 4.793-3.356z"/><path fill="#015C81" d="M513 125c0 6.021 0 12.042-.341 18.6-2.74 2.287-5.392 3.777-7.49 5.833-6.404 6.275-12.53 12.832-18.88 19.163-25.39 25.31-50.85 50.55-76.234 75.864-24.696 24.629-49.318 49.332-74.03 73.943-1.47 1.463-3.457 2.406-5.225 3.168 1.749-12.47 3.519-24.519 5.644-36.588 1.85-.938 3.383-1.798 4.83-2.784 1.988-1.352 3.91-2.8 6.066-3.941 7.764 6.479 12.009 6.379 17.943-1.683 6.558-8.91 12.265-18.445 18.726-27.695 2.417-1.283 4.77-2.258 6.438-3.921 38.713-38.591 77.334-77.273 116.056-115.856 1.77-1.764 4.314-2.753 6.497-4.103"/><path fill="#00597E" d="M330.822 321.995c1.746-1.186 3.733-2.129 5.203-3.592 24.712-24.611 49.334-49.314 74.03-73.943 25.385-25.315 50.844-50.554 76.234-75.864 6.35-6.33 12.476-12.888 18.88-19.163 2.098-2.056 4.75-3.546 7.49-5.364.341 5.619.341 11.307.001 17.532-7.664 7.491-15.11 14.322-22.287 21.426-15.122 14.967-30.094 30.086-45.144 45.126-11.525 11.517-23.095 22.988-34.61 34.515-12.337 12.347-24.61 24.758-36.952 37.099-11.633 11.63-23.39 23.138-34.946 34.844-3.808 3.857-7.16 8.164-11.119 12.362-1.995.096-3.591.096-4.622.096 1.552-4.136 3.256-8.134 4.544-12.261 1.312-4.205 2.215-8.537 3.298-12.813"/><path fill="#00567A" d="M328.001 346.877c3.56-4.102 6.912-8.409 10.72-12.266 11.556-11.706 23.313-23.213 34.946-34.844 12.343-12.34 24.615-24.752 36.951-37.1 11.516-11.526 23.086-22.997 34.61-34.514 15.051-15.04 30.023-30.159 45.145-45.126 7.176-7.104 14.623-13.935 22.287-20.958.34 6.952.34 13.973.34 21.462-1.608 1.577-3.433 2.468-4.793 3.825a106585 106585 0 0 0-119.724 119.701c-1.267 1.27-2.238 2.834-3.836 4.627-9.638-1.642-17.678-.325-25.044 6.308-7.705 6.937-7.384 15.814-7.668 26.055z"/><path d="M407.469 513c.643-.69 1.676-1.765 2.88-2.013 28.763-5.93 52.966-19.973 72.055-42.09 14.725-17.062 24.426-36.945 28.627-59.295.166-.883.797-1.679 1.59-2.559C513 442.26 513 477.521 513 513zM407 1h106c0 35.02 0 70.042-.363 105.627-.843-.5-1.324-1.565-1.752-3.03-2.219-7.476-4.49-14.552-6.815-22.003-5.044-9.484-10.033-18.593-15.179-28.001-6.718-7.435-13.281-14.57-20-22.004-1.69-1.515-3.128-2.882-4.774-3.92-6.323-3.986-12.712-7.866-19.265-12.08-8.395-3.43-16.6-6.566-25.033-10.017-4.151-1.115-8.088-1.87-11.987-2.788-.395-.093-.56-1.166-.832-1.784M1 407.469c.751 1.392 1.502 3.252 2.612 5.754 3 8.37 5.641 16.099 8.335 24.19 2.442 4.768 4.83 9.174 7.27 13.92 3.278 4.818 6.505 9.295 9.875 14.078 4.384 4.772 8.626 9.238 13.013 14.002 6.588 5.006 13.03 9.712 19.656 14.687 6.527 3.502 12.771 6.957 19.253 9.887 3.796 1.715 7.97 2.592 11.975 3.847 4.703 1.457 9.405 2.914 14.06 4.769C71.738 513 36.478 513 1 513zM106.531 1c-.004.656-.399 1.807-.962 1.896-17.798 2.829-33.901 9.875-48.792 19.776C39.415 34.215 25.974 49.46 16.124 67.738 9.652 79.748 4.271 92.263 2.871 106.097c-.054.542-.77 1.017-1.524 1.213C1 71.74 1 36.48 1 1z"/><path fill="#008DB3" d="M252.225 100.67c1.243-2.374 1.998-5.235 3.803-7.052 28.857-29.064 57.855-57.987 86.788-86.975 1.502-1.505 2.707-3.307 4.117-5.307a477 477 0 0 1 31.58.025c-.82 2.235-1.826 4.37-3.395 5.944-31.933 32.036-63.926 64.012-95.93 95.977-1.399 1.397-3.02 2.571-4.846 3.736-6.569-5.724-13.999-7.239-22.117-6.347"/><path fill="#00587C" d="M137.469 513c.876-1.845 2.004-3.905 3.597-5.502 30.82-30.907 61.697-61.757 92.551-92.629 1.41-1.41 2.722-2.918 4.626-4.65 8.683 3.006 17.096 4.316 26.119 3.495-.581 2.043-1.018 4.31-2.368 5.667-29.044 29.208-58.21 58.294-87.262 87.493-1.64 1.649-2.506 4.066-3.732 6.126z"/><path fill="#0085AB" d="M406.563 1c.709.618.874 1.69 1.27 1.784 3.898.918 7.835 1.673 11.915 3.132-.942 2.095-1.89 3.68-3.156 4.949a103092 103092 0 0 1-117.71 117.693c-1.363 1.36-3.167 2.28-5.082 3.282-3.155-2.339-6.144-4.392-8.771-6.834-1.402-1.302-2.178-3.277-2.887-5.017 1.677-1.034 3.16-1.84 4.307-2.984 36.875-36.82 73.73-73.658 110.511-110.571C398.37 5.018 399.004 2.829 400 1z"/><path fill="#006085" d="M510.833 103.997c.48 1.065.96 2.13 1.804 3.099.363 5.592.363 11.28.363 17.436-2.183 1.818-4.727 2.807-6.497 4.571-38.722 38.583-77.343 77.265-116.056 115.856-1.668 1.663-4.02 2.638-6.352 3.559a419 419 0 0 1 8.586-29.705c2.24-1.314 4.329-2.395 5.916-3.978 35.62-35.53 71.176-71.125 106.787-106.663 1.606-1.603 3.623-2.793 5.449-4.175"/><path fill="#004E72" d="M373.11 360.659c-1.39 1.635-2.677 3.376-4.19 4.89-46.898 46.936-93.828 93.84-140.698 140.805-1.685 1.688-2.811 3.933-4.21 6.282-5.369.364-10.726.364-16.529.003.943-2.354 2.068-4.61 3.757-6.302 45.504-45.6 91.08-91.13 136.568-136.745 1.772-1.776 2.813-4.282 4.534-6.612 7.071-1.625 13.349-7.384 20.769-2.321"/><path fill="#015479" d="M171.468 513c.758-2.06 1.625-4.477 3.264-6.126 29.052-29.199 58.218-58.285 87.262-87.493 1.35-1.358 1.787-3.624 2.739-5.838 18.31-3.833 30.486-15.65 40.859-29.926 3.817-5.253 7.6-10.563 4.162-17.482 8.042 0 15.645 0 23.172.33-3.59 4.24-7.01 8.237-10.635 12.04-6.598 6.92-13.239 13.805-20.01 20.555-6.418 6.397-13.139 12.49-19.524 18.916-9.293 9.352-18.298 18.992-27.625 28.309-9.21 9.199-18.732 18.083-28 27.226-10.555 10.414-21.05 20.893-31.408 31.503-2.262 2.317-3.834 5.306-5.724 7.986z"/><path fill="#00ADD4" d="M197.535 1c-1.929 3.13-4.035 6.542-6.768 9.342-10.397 10.65-20.95 21.147-31.531 31.613-11.988 11.858-24.15 23.54-36.085 35.45-9.367 9.345-18.415 19.009-27.769 28.367-9.118 9.122-18.532 17.949-27.656 27.066-9.478 9.471-18.685 19.212-28.155 28.692-8.996 9.007-18.144 17.865-27.297 26.715-3.427 3.313-7.056 6.418-10.934 9.686-.34-4.288-.34-8.645.02-13.485 2.001-1.518 3.904-2.289 5.243-3.625A136434 136434 0 0 0 180.965 6.431c1.41-1.414 2.04-3.603 3.035-5.431z"/><path fill="#005175" d="M190.468 513c1.422-2.68 2.994-5.67 5.256-7.986 10.358-10.61 20.853-21.09 31.409-31.503 9.267-9.143 18.79-18.027 27.999-27.226 9.327-9.317 18.332-18.957 27.625-28.31 6.385-6.426 13.106-12.518 19.523-18.915 6.772-6.75 13.413-13.635 20.011-20.556 3.625-3.802 7.046-7.8 11.056-12.142 6.55-1.361 12.602-2.29 18.655-3.217-1.381 2.165-2.422 4.67-4.194 6.447-45.489 45.615-91.064 91.145-136.568 136.745-1.69 1.692-2.814 3.948-4.221 6.302-5.374.361-10.729.361-16.551.361"/><path fill="#0089AF" d="M399.531 1c-.527 1.829-1.16 4.018-2.57 5.434-36.781 36.913-73.637 73.751-110.512 110.57-1.146 1.145-2.63 1.951-4.536 2.712-2.806-4.33-5.034-8.457-7.262-12.584 1.517-1.279 3.138-2.453 4.537-3.85 32.004-31.965 63.997-63.941 95.93-95.977 1.569-1.574 2.576-3.71 3.863-5.944C385.688 1 392.375 1 399.531 1"/><path fill="#00B1D8" d="M1 158.465c1.829-1.46 4.02-2.093 5.434-3.504A96170 96170 0 0 0 154.818 6.606c1.337-1.34 2.109-3.244 3.163-5.245 4.376-.361 8.733-.361 13.536 0-.591 2.003-1.364 3.908-2.702 5.248A113602 113602 0 0 1 7.237 168.157C5.554 169.836 3.097 170.737 1 172z"/><path fill="#00AFD6" d="M1 172.46c2.096-1.723 4.554-2.624 6.237-4.303C61.155 114.367 115.005 60.507 168.815 6.61c1.338-1.34 2.11-3.245 3.166-5.248C175.693 1 179.386 1 183.54 1c-.533 1.828-1.165 4.017-2.574 5.43A136434 136434 0 0 1 6.603 180.821c-1.339 1.336-3.242 2.107-5.242 3.16C1 180.307 1 176.614 1 172.461"/><path fill="#FCFDFE" d="M274.342 107.018c2.537 4.241 4.765 8.368 7.221 12.768 1.288 1.943 2.064 3.918 3.466 5.22 2.627 2.442 5.616 4.495 8.904 7.137 5.627 6.96 10.805 13.493 16.042 20.369 2.774 5.444 5.49 10.546 8.374 15.966 3.17-4.82 7.64-5.838 12.727-5.38 3.303.297 6.618.462 10.332.789 10.475 1.544 19.903 4.853 28.988 10.097 8.397 5.426 14.009 12.833 18.531 21.59 1.137 8.001 2.252 15.62 3.368 23.239-2.832 9.777-5.664 19.553-8.582 29.692-6.165 9.625-11.872 19.16-18.43 28.07-5.934 8.062-10.18 8.162-17.9 1.301-1.747-4.976-.496-8.532 2.168-12.186 5.357-7.349 10.728-14.75 15.298-22.592 4.997-8.574 8.28-17.905 8.209-28.528.538-10.963-4.617-18.455-13.08-24.509-11.254-6.917-23.588-7.57-35.995-8.322 2.972 12.003 5.864 23.685 8.734 35.802 1.124 10.444 2.268 20.453 3.353 30.927-.034 12.49-.008 24.513.019 36.536-1.77 12.048-3.54 24.096-5.289 36.567-1.06 4.7-1.964 9.032-3.276 13.237-1.288 4.127-2.992 8.125-4.544 12.26 1.03 0 2.627 0 4.622-.095a4173 4173 0 0 1 24.333-2.926c.284-10.24-.037-19.118 7.668-26.055 7.366-6.633 15.406-7.95 24.976-5.972 6.48 2.724 11.757 6.357 14.925 12.854 7.12 18.369-3.921 31.121-14.815 34.357-3.407 1.012-7.134.948-11.146 1.402-7.852-5.037-14.13.722-21.2 2.347-6.394 1.093-12.447 2.02-18.92 3.052-8.024.103-15.627.103-23.67.103 3.44 6.919-.344 12.229-4.161 17.482-10.373 14.276-22.548 26.093-41.14 29.727-9.113 1.19-17.526-.119-26.042-3.42-10.194-5.154-18.568-12.03-25.855-21.218-1.66-2.267-3.039-3.952-4.165-5.79a982 982 0 0 1-13.305-22.356c-1.44-4.598-2.893-8.786-4.219-13.015-.368-1.172-.934-2.829-.421-3.637 2.287-3.61 4.627-7.48 9.551-7.822 4.571-.317 7.237 2.613 9.545 6.485 4.565 9.378 9.018 18.391 13.545 27.74 5.597 6.156 11.12 11.978 16.83 18.1 13.454 9.74 27.9 7.1 38.292-2.896 6.74-6.483 12.297-14.195 18.801-21.848-9.717-2.45-18.343-4.623-27.215-7.06-8.754-3.405-17.262-6.548-25.989-9.962-8.701-4.5-17.184-8.73-25.901-13.2-7.07-4.478-13.907-8.717-20.95-13.201-5.39-4.094-10.573-7.942-15.938-12.05-5.158-4.558-10.135-8.856-15.283-13.44-4.455-4.725-8.739-9.167-13.236-13.83-5.642 9.104-10.194 18.949-11.203 30.159 2.78 1.09 5.225 2.05 7.812 3.319 6.08 2.952 9.102 8.118 11.71 14.073 5.176 17.228-9.65 35.655-30.19 31.616-4.02-2.163-7.662-4.202-11.442-6.56-3.91-4.352-6.298-9.074-7.149-14.967-.317-8.321 2.202-15.061 7.646-20.849 1.2-1.277 1.776-3.376 2.105-5.193.992-5.483 1.721-11.013 2.553-16.524l16.267-34.588a3154 3154 0 0 0-8.067-8.722c-3.256-8.176-6.25-16.093-9.42-24.348.004-9.386-1.438-18.833.68-27.4 5.262-21.302 21.603-31.387 41.743-35.722 8.349-1.797 17.122-1.621 26.51-2.325 6.553.445 12.33.62 18.031 1.374 5.005.663 10.305 1.094 13.728 6.203 2.298 8.212-1.268 13.095-10.234 13.792-8.14-.8-15.858-1.484-24.03-2.264-7.557.604-14.831.56-21.721 2.164-12.987 3.023-24.09 9.438-26.177 23.953-.978 6.804 1.078 14.043 1.843 21.464 2.767 6.53 5.45 12.68 7.885 18.263 12.939-11.415 25.357-22.372 38.098-33.478 6.216-4.443 11.752-9.382 18.078-12.9 13.311-7.401 27.038-14.058 40.959-21.121 15.317-6.247 30.609-11.256 47.146-14.16-4.41-7.457-8.763-14.805-15.718-20.657-1.47-1.454-2.8-2.61-4.115-3.753-8.91 8.783-18.777 10.218-29.92 5.68-10.116-5.76-14.397-14.28-13.73-25.459 2.583-10.61 8.515-18.125 19.742-21.178 8.426-1.037 15.856.478 22.425 6.202M314.34 304.27c.864-10.423 1.727-20.846 2.8-32.186-.182-8.694-.363-17.388-.407-26.902-1.157-8.431-2.315-16.862-3.442-26.127-1.84-7.684-3.682-15.368-5.532-23.781l-4.789-13.589c-4.069 1.642-7.38 3.168-10.816 4.316-4.046 1.353-8.2 2.379-13.083 3.653-14.687 6.208-29.374 12.415-44.716 18.781-27.957 15.44-53.326 34.009-72.335 58.68 3.958 2.586 7.415 4.845 11.138 7.708 3.96 3.721 7.919 7.442 12.175 11.762 5.823 4.627 11.646 9.254 17.877 14.383 5.853 3.855 11.706 7.71 18.04 12.015 5.918 3.26 11.837 6.52 18.331 10.207 5.77 2.619 11.541 5.237 17.814 8.381 7.201 2.477 14.403 4.954 22.178 7.896l29.7 7.274c-3.105-5.074-2.343-9.5-1.235-14.18 2.164-9.143 3.978-18.369 6.302-28.29m56.934 31.3c1.629 5.711 6.295 7.96 9.524 4.357 1.211-1.35 2.092-4.146 1.508-5.658-.687-1.777-3.447-4.258-4.744-3.962-2.278.52-4.126 2.92-6.288 5.263m-118.04-206.123c2.791 2.198 5.926 2.237 7.91-.468 1.168-1.593 1.566-4.983.623-6.547-.94-1.561-4.067-2.708-6.094-2.519-3.933.367-4.949 4.117-2.439 9.534M141.478 339.155c2.184-3.729 1.57-6.842-2.477-8.565-3.575-1.521-6.471.092-7.38 3.626-.434 1.683.53 5.112 1.662 5.519 2.262.812 5.077.086 8.195-.58"/><path fill="#018CB2" d="M231.827 122.055c-.32 11.118 3.962 19.639 14.002 25.752-5.417 6.533-10.886 12.515-16.542 18.316-1.562 1.601-3.68 2.661-5.544 3.97-3.355-4.732-8.655-5.163-13.66-5.826-5.7-.754-11.478-.929-17.603-1.441.294-1.537.638-3.316 1.696-4.388 11.522-11.679 23.147-23.255 34.782-34.822.673-.668 1.672-1.008 2.869-1.561"/><path fill="#00698E" d="M195.12 360.954c4.416 7.325 8.803 14.667 13.27 21.961 1.126 1.84 2.506 3.524 3.903 5.603-1.512 1.38-3.412 2.18-4.765 3.53A87267 87267 0 0 0 95.862 503.673c-1.038 1.039-1.817 2.336-2.795 3.836-4.082-.93-8.257-1.808-12.053-3.523-6.482-2.93-12.726-6.385-19.058-10.243.966-1.773 1.834-3.008 2.885-4.06 41.915-41.943 83.84-83.877 125.809-125.767 1.24-1.238 2.969-1.986 4.47-2.963"/><path fill="#0082A7" d="M123.974 296.052a178 178 0 0 1-2.188 16.47c-.329 1.817-.905 3.916-2.105 5.193-5.444 5.788-7.963 12.528-7.98 20.917-2.056 1.85-3.85 3.06-5.354 4.56-29.892 29.84-59.747 59.716-89.628 89.565-1.52 1.52-3.213 2.866-4.825 4.294-2.64-7.73-5.281-15.459-7.961-23.594 7.111-7.27 14.318-14.075 21.395-21.013 7.083-6.944 14.03-14.025 21.046-21.038 6.303-6.3 12.631-12.574 18.923-18.886 6.886-6.91 13.734-13.857 20.615-20.771 6.634-6.666 13.158-13.45 19.976-19.924 5.723-5.433 11.8-10.493 18.086-15.773"/><path fill="#02658A" d="M372.962 215c.166 10.193-3.116 19.524-8.113 28.098-4.57 7.843-9.94 15.243-15.298 22.592-2.664 3.654-3.915 7.21-2.373 11.92-1.993 1.789-3.916 3.237-5.903 4.59-1.448.985-2.98 1.845-4.831 2.783a600 600 0 0 1-.047-36.59c1.801-1.666 3.334-2.675 4.611-3.94 8.74-8.668 17.37-17.45 26.186-26.038 1.556-1.515 3.827-2.295 5.768-3.414"/><path fill="#00799F" d="M341.004 163.784c-3.31-.224-6.625-.389-9.928-.686-5.087-.458-9.556.56-12.727 5.38-2.885-5.42-5.6-10.522-8.202-16.264.645-1.28 1.128-1.967 1.713-2.552 43.106-43.122 86.222-86.233 129.32-129.363 1.38-1.38 2.578-2.94 3.861-4.416 6.364 3.92 12.753 7.8 19.076 11.787 1.646 1.037 3.084 2.404 4.702 4.263-1.365 2.433-2.667 4.37-4.284 5.99-39.879 39.933-79.804 79.819-119.648 119.787-1.657 1.662-2.605 4.033-3.883 6.074"/><path fill="#007297" d="M341.408 163.887c.874-2.144 1.822-4.515 3.48-6.177 39.843-39.968 79.768-79.854 119.647-119.788 1.617-1.62 2.919-3.556 4.44-5.689a438 438 0 0 1 19.844 21.703c-1.25 2.316-2.435 4.134-3.935 5.637a126506 126506 0 0 1-109.166 109.183c-1.761 1.76-3.707 3.337-5.567 4.998-8.84-5.014-18.268-8.323-28.743-9.867"/><path fill="#006A90" d="M370.396 173.984c1.615-1.891 3.56-3.468 5.322-5.228 36.408-36.374 72.802-72.764 109.166-109.183 1.5-1.503 2.686-3.321 4.09-5.337 5.063 8.765 10.052 17.874 14.75 27.426-1.962 1.768-3.782 2.944-5.282 4.44-26.01 25.95-51.963 51.957-77.971 77.909-10.469 10.446-21.04 20.79-31.565 31.18-4.501-8.374-10.113-15.781-18.51-21.207"/><path fill="#0080A6" d="M444.852 15.59c-1.094 1.769-2.293 3.33-3.672 4.71-43.098 43.129-86.214 86.24-129.32 129.362-.585.585-1.068 1.272-1.771 2.21-5.35-6.236-10.53-12.77-15.84-19.605 1.466-1.428 3.27-2.348 4.633-3.71a103092 103092 0 0 0 117.71-117.692c1.266-1.268 2.214-2.854 3.381-4.635 8.278 2.793 16.484 5.93 24.88 9.36"/><path fill="#006489" d="M388.927 195.574c10.504-10.773 21.075-21.117 31.544-31.563 26.008-25.952 51.96-51.96 77.971-77.91 1.5-1.495 3.32-2.67 5.337-4.063 2.617 7.007 4.887 14.083 7.106 21.559-1.878 1.782-3.895 2.972-5.5 4.575-35.612 35.538-71.169 71.132-106.788 106.663-1.587 1.583-3.675 2.664-5.916 3.978-1.502-7.619-2.617-15.238-3.754-23.24"/><path fill="#007095" d="M195.085 360.56c-1.466 1.37-3.195 2.12-4.435 3.357-41.97 41.89-83.894 83.824-125.81 125.768-1.05 1.051-1.918 2.286-3.067 3.79a225 225 0 0 1-19.597-14.406c1.372-2.432 2.67-4.37 4.288-5.99 48.705-48.758 97.452-97.475 146.134-146.255 1.815-1.819 3.055-4.21 4.564-6.334 6.835 4.238 13.671 8.477 20.573 13.268-2.726 3.185-5.516 5.816-8.307 8.448-2.195-3.507-4.86-6.437-9.432-6.12-4.924.342-7.264 4.212-9.551 7.822-.513.808.053 2.465.421 3.637 1.326 4.229 2.779 8.417 4.219 13.015"/><path fill="#00759B" d="M196.955 320.244c-1.302 2.37-2.542 4.761-4.357 6.58-48.682 48.78-97.429 97.497-146.134 146.255-1.617 1.62-2.916 3.558-4.434 5.691a163 163 0 0 1-12.767-13.653 32 32 0 0 1 4.102-4.97c31.262-31.279 62.553-62.53 93.757-93.866 1.655-1.663 2.604-4.028 3.882-6.067 20.161 3.916 34.988-14.511 30.162-31.81 6.897-6.973 13.464-13.461 20.032-19.95 5.183 3.848 10.366 7.696 15.757 11.79"/><path fill="#007DA2" d="M11.947 437.413c1.56-1.79 3.251-3.137 4.772-4.656 29.881-29.85 59.736-59.726 89.628-89.564 1.504-1.501 3.298-2.71 5.292-4.124 1.247 5.388 3.636 10.11 7.234 14.633-1.763 1.948-3.408 3.35-4.932 4.874-29.172 29.15-58.306 58.336-87.54 87.423-2.044 2.033-4.806 3.346-7.234 4.993-2.39-4.405-4.778-8.81-7.22-13.579"/><path fill="#00799F" d="M19.217 451.333c2.378-1.988 5.14-3.3 7.184-5.334 29.234-29.087 58.368-58.274 87.54-87.423 1.524-1.523 3.17-2.926 5.069-4.555 3.954 1.868 7.596 3.907 11.616 6.07-.9 2.162-1.849 4.527-3.504 6.19-31.204 31.336-62.495 62.587-93.757 93.867-1.407 1.407-2.718 2.91-4.245 4.663-3.398-4.183-6.625-8.66-9.903-13.478"/><path fill="#01799E" d="M279.846 189.547c4.107-1.167 8.262-2.193 12.308-3.546 3.436-1.148 6.747-2.674 10.816-4.316 1.373 3.895 3.081 8.742 4.448 13.976-1.841 1.346-3.57 2.072-4.804 3.296a7622 7622 0 0 0-41.61 41.605c-1.236 1.244-2.014 2.942-3.395 4.522-14.457 2.28-19.674 8.08-20.368 21.946-2.422 1.29-4.825 2.22-6.53 3.87-7.984 7.734-15.828 15.614-23.596 23.566-1.702 1.741-2.888 3.986-4.312 6-5.824-4.627-11.647-9.254-17.336-14.35 30.822-31.076 61.52-61.67 92.153-92.331 1.077-1.078 1.499-2.81 2.226-4.238"/><path fill="#017EA3" d="M279.458 189.6c-.339 1.375-.76 3.107-1.838 4.185a36101 36101 0 0 1-92.3 92.03c-4.243-3.55-8.203-7.271-12.123-11.597 9.052-9.746 18.04-18.911 27.082-28.022 10.426-10.505 20.968-20.895 31.282-31.506 1.627-1.674 2.323-4.253 3.449-6.414 14.687-6.207 29.374-12.414 44.448-18.675"/><path fill="#016E93" d="M239.006 322.763c-5.919-3.26-11.838-6.52-17.826-10.335 7.777-8.655 15.669-16.711 23.426-24.895 1.413-1.49 2.276-3.5 3.76-5.188 2.424.627 4.454 1.504 6.54 1.663 15.634 1.194 24.908-11.927 20.138-28.086 10.827-10.552 21.308-20.98 31.9-31.294 1.87-1.822 4.2-3.171 6.317-4.739 1.157 8.431 2.315 16.862 3.051 25.711-2.117 1.312-4.157 1.858-5.457 3.149a16302 16302 0 0 0-69.024 69.018c-1.301 1.308-1.9 3.315-2.825 4.996"/><path fill="#00698E" d="M239.294 322.977c.638-1.895 1.236-3.902 2.537-5.21a16302 16302 0 0 1 69.024-69.018c1.3-1.291 3.34-1.837 5.388-2.739.534 8.686.715 17.38.46 26.603-1.97 1.76-3.631 2.86-5.016 4.24-14.688 14.624-29.315 29.31-44.001 43.935-3.516 3.502-7.191 6.843-10.793 10.257-5.77-2.618-11.541-5.236-17.6-8.068"/><path fill="#028AB0" d="M190.002 182.094c7.717.684 15.434 1.368 23.551 2.505-.702 2.054-1.604 3.85-2.941 5.221-6.143 6.297-12.509 12.38-18.554 18.767-1.443 1.525-1.961 3.927-2.905 5.926l-37.776 33.329c-2.435-5.583-5.118-11.733-7.547-18.42.794-.92 1.403-1.235 1.865-1.696 14.12-14.079 28.238-28.159 42.302-42.292.89-.894 1.347-2.217 2.005-3.34"/><path fill="#0286AC" d="M189.475 214.364c.622-1.85 1.14-4.252 2.583-5.777 6.045-6.388 12.411-12.47 18.554-18.767 1.337-1.371 2.239-3.167 3.364-5.105 8.567-1.15 12.133-6.033 9.835-14.245 1.795-1.686 3.914-2.746 5.476-4.347 5.656-5.8 11.125-11.783 16.74-18.051 11.021 3.92 20.887 2.484 29.798-6.299 1.315 1.143 2.644 2.299 3.945 4.053-9.478 10.16-18.97 19.678-28.33 29.325-1.414 1.458-2.211 3.514-3.293 5.292-13.556 6.963-27.283 13.62-40.594 21.022-6.326 3.517-11.862 8.456-18.078 12.9"/><path fill="#016489" d="M257.144 331.308c3.35-3.677 7.026-7.018 10.542-10.52 14.686-14.625 29.313-29.311 44-43.935 1.386-1.38 3.048-2.48 4.913-3.781-.532 10.352-1.395 20.775-2.787 31.627-2.308 1.572-4.346 2.453-5.826 3.903a1900 1900 0 0 0-25.246 25.227c-1.475 1.5-2.505 3.437-3.74 5.173-7.202-2.477-14.404-4.954-21.856-7.694"/><path fill="#017399" d="M313.276 219.472c-2.133 1.985-4.463 3.334-6.333 5.156-10.59 10.314-21.072 20.742-32.156 31.087-3.874-6.79-9.924-9.374-16.787-10.723.99-1.488 1.768-3.186 3.003-4.43a7622 7622 0 0 1 41.61-41.605c1.235-1.224 2.964-1.95 4.809-2.931 2.187 7.66 4.028 15.345 5.854 23.446"/><path fill="#036B90" d="M373.058 214.57c-2.037 1.55-4.308 2.33-5.864 3.845-8.817 8.588-17.445 17.37-26.186 26.037-1.277 1.266-2.81 2.275-4.55 3.477a425 425 0 0 1-3.417-30.537c9.286-9.422 18.226-18.26 27.166-27.097 8.234 5.82 13.39 13.312 12.85 24.275"/><path fill="#025D82" d="m270.04 356.87 26.969 6.797c-6.504 7.653-12.061 15.365-18.8 21.848-10.393 9.996-24.84 12.637-37.939 2.818 1.013-.867 2.011-1.204 2.683-1.87 8.439-8.363 16.876-16.73 25.177-25.228 1.038-1.063 1.293-2.892 1.91-4.365"/><path fill="#016287" d="M269.794 356.607c-.371 1.736-.626 3.565-1.664 4.628-8.3 8.499-16.738 16.865-25.177 25.228-.672.666-1.67 1.003-2.87 1.57-5.877-5.744-11.4-11.566-16.824-18.004 5.314-5.924 10.596-11.169 15.713-16.57 1.885-1.99 3.38-4.35 5.053-6.542 8.507 3.142 17.015 6.285 25.769 9.69"/><path fill="#0290B5" d="M189.547 181.998c-.203 1.22-.66 2.542-1.55 3.436-14.064 14.133-28.182 28.213-42.302 42.292-.462.461-1.071.776-1.95 1.317-1.018-6.885-3.074-14.124-2.096-20.928 2.087-14.515 13.19-20.93 26.177-23.953 6.89-1.605 14.164-1.56 21.72-2.164"/><path fill="#017398" d="M247.998 282.263c-1.116 1.77-1.98 3.78-3.392 5.27-7.757 8.184-15.65 16.24-23.666 24.67-6.024-3.525-11.877-7.38-17.934-11.486 1.22-2.265 2.407-4.51 4.109-6.251 7.768-7.952 15.612-15.832 23.597-23.566 1.704-1.65 4.107-2.58 6.664-3.5 1.573 6.78 5.044 11.558 10.622 14.863"/><path fill="#0383A8" d="M234.682 208.356c-.798 2.08-1.494 4.66-3.12 6.334-10.315 10.61-20.857 21.001-31.283 31.506a3789 3789 0 0 0-27.214 27.72c-3.63-1.956-7.087-4.215-11.045-6.802 19.009-24.67 44.378-43.238 72.662-58.758"/><path fill="#037296" d="M359.978 190.061c-8.71 9.071-17.651 17.91-26.915 26.896-3.216-11.533-6.108-23.215-9.08-35.218 12.407.753 24.74 1.405 35.995 8.322"/><path fill="#036185" d="M279.286 339.235c.949-1.969 1.979-3.907 3.454-5.406a1900 1900 0 0 1 25.246-25.227c1.48-1.45 3.518-2.33 5.643-3.538-1.613 9.128-3.427 18.354-5.591 27.497-1.108 4.68-1.87 9.106 1.235 14.18-9.9-2.425-19.8-4.85-29.987-7.506"/><path fill="#036B90" d="M243.805 346.645c-1.453 2.463-2.948 4.824-4.833 6.814-5.117 5.401-10.4 10.646-15.788 16.235-4.625-8.732-9.078-17.745-13.643-27.123 2.678-2.997 5.468-5.628 8.428-8.572 8.652 3.917 17.135 8.146 25.836 12.646"/><path fill="#0383A8" d="M248.512 180.343c.717-1.678 1.514-3.734 2.928-5.192 9.36-9.647 18.852-19.165 28.471-29.025 6.984 5.252 11.336 12.6 15.747 20.057-16.537 2.904-31.829 7.913-47.146 14.16"/><path fill="#027BA1" d="M181.016 308.195c-6.386 6.748-12.953 13.236-19.871 19.796-2.937-5.471-5.959-10.637-12.014-13.956.434-1.84.72-3.266 1.574-4.126 4.993-5.03 10.119-9.927 15.2-14.87 4.976 4.3 9.953 8.597 15.111 13.156"/><path fill="#0581A6" d="M165.733 294.755c-4.91 5.227-10.035 10.124-15.028 15.154-.855.86-1.14 2.285-1.714 3.816-2.472-.593-4.917-1.552-7.697-2.642 1.01-11.21 5.56-21.055 11.203-30.16 4.497 4.664 8.78 9.106 13.236 13.832"/><path fill="#0D597C" d="M371.34 335.205c2.096-1.978 3.944-4.378 6.222-4.897 1.297-.296 4.057 2.185 4.744 3.962.584 1.512-.297 4.308-1.508 5.658-3.229 3.603-7.895 1.354-9.457-4.723"/><path fill="#0B90B4" d="M252.982 129.169c-2.258-5.138-1.242-8.888 2.69-9.255 2.028-.189 5.154.958 6.095 2.519.943 1.564.545 4.954-.623 6.547-1.984 2.705-5.119 2.666-8.162.189"/><path fill="#0581A6" d="M141.213 339.443c-2.853.378-5.668 1.104-7.93.292-1.132-.407-2.096-3.836-1.663-5.52.91-3.533 3.806-5.146 7.38-3.625 4.047 1.723 4.662 4.836 2.213 8.853"/><path fill="#FCFDFE" d="M248.366 282.345c-5.946-3.387-9.417-8.165-10.649-14.972.218-14.209 5.435-20.008 19.892-22.29 7.254 1.258 13.304 3.842 16.87 10.794 5.335 16.204-3.939 29.325-19.574 28.131-2.085-.159-4.115-1.036-6.539-1.663"/></svg>