<svg version="1.1" id="Layer_1" xmlns="http://www.w3.org/2000/svg" xmlns:xlink="http://www.w3.org/1999/xlink" x="0px" y="0px"
	 width="100%" viewBox="0 0 512 512" enable-background="new 0 0 512 512" xml:space="preserve">
<path fill="#0095BB" opacity="1.000000" stroke="none" 
	d="
M303.000000,0.999996 
	C317.354218,1.000000 331.708466,1.000000 346.464172,1.336438 
	C345.522736,3.336258 344.318329,5.137856 342.816467,6.642589 
	C313.883423,35.630955 284.884949,64.554199 256.027771,93.617775 
	C254.223068,95.435394 253.468475,98.295639 251.916748,100.816017 
	C240.689667,103.869286 234.758026,111.384689 231.826508,122.054939 
	C230.630020,122.608109 229.630554,122.947762 228.958054,123.616302 
	C217.323227,135.182632 205.698074,146.759308 194.176163,158.437668 
	C193.117706,159.510483 192.774445,161.288925 191.671509,162.807373 
	C182.663788,163.596573 173.890579,163.421097 165.541885,165.217987 
	C145.401657,169.552811 129.061035,179.637833 123.798332,200.939056 
	C121.681488,209.507141 123.123184,218.954391 122.587814,228.020676 
	C120.243362,229.436722 118.001526,230.578064 116.306923,232.268097 
	C79.676727,268.799561 43.117039,305.401733 6.495008,341.941406 
	C4.900678,343.532166 2.842249,344.657745 1.000002,346.000000 
	C1.000000,331.979095 1.000000,317.958221 1.340337,303.399902 
	C3.715259,301.445068 6.006168,300.286835 7.743279,298.568695 
	C20.008516,286.437439 32.160728,274.191864 44.347645,261.981415 
	C72.939240,233.334625 101.505363,204.662369 130.127838,176.046478 
	C161.441193,144.740295 192.813705,113.493294 224.146515,82.206543 
	C246.565292,59.820728 269.022827,37.473015 291.313049,14.959787 
	C295.568024,10.662278 299.122375,5.671120 303.000000,0.999996 
z"/>
<path fill="#009CC3" opacity="1.000000" stroke="none" 
	d="
M302.531342,0.999996 
	C299.122375,5.671120 295.568024,10.662278 291.313049,14.959787 
	C269.022827,37.473015 246.565292,59.820728 224.146515,82.206543 
	C192.813705,113.493294 161.441193,144.740295 130.127838,176.046478 
	C101.505363,204.662369 72.939240,233.334625 44.347645,261.981415 
	C32.160728,274.191864 20.008516,286.437439 7.743279,298.568695 
	C6.006168,300.286835 3.715259,301.445068 1.340337,302.931213 
	C1.000000,288.979095 1.000000,274.958221 1.336453,260.401520 
	C3.100987,258.758087 4.668951,257.790375 5.937181,256.522797 
	C89.532196,172.971985 173.106537,89.400452 256.644714,5.792801 
	C258.002258,4.434116 258.891968,2.607989 260.000000,0.999999 
	C274.020905,1.000000 288.041779,1.000000 302.531342,0.999996 
z"/>
<path fill="#003357" opacity="1.000000" stroke="none" 
	d="
M513.000000,349.000000 
	C513.000000,368.020905 513.000000,387.041779 512.621460,406.574768 
	C511.828400,407.923309 511.196838,408.719025 511.030884,409.602234 
	C506.830475,431.951843 497.129425,451.835327 482.403931,468.897156 
	C463.315125,491.014465 439.111816,505.057251 410.348267,510.987213 
	C409.144989,511.235291 408.112213,512.310303 407.000000,513.000000 
	C387.979095,513.000000 368.958221,513.000000 349.536926,512.660767 
	C351.500732,509.595520 353.744904,506.753143 356.252319,504.165863 
	C363.047577,497.154297 369.937744,490.234283 376.822174,483.309662 
	C382.996460,477.099304 389.217407,470.935333 395.409943,464.743073 
	C402.547089,457.606049 409.672424,450.457214 416.808868,443.319489 
	C423.000702,437.126526 429.204132,430.945129 435.396667,424.752869 
	C442.533936,417.615967 449.662628,410.470459 456.799164,403.332825 
	C462.991089,397.139954 469.190643,390.954712 475.383240,384.762512 
	C482.520599,377.625671 489.540527,370.366455 496.827454,363.385864 
	C502.033966,358.398163 507.596375,353.781952 513.000000,349.000000 
z"/>
<path fill="#00B4DB" opacity="1.000000" stroke="none" 
	d="
M107.000000,1.000000 
	C123.687561,1.000000 140.375122,1.000000 157.512604,1.360891 
	C156.926926,3.362470 156.154861,5.266212 154.817657,6.605864 
	C105.406303,56.107460 55.952965,105.567192 6.433743,154.960846 
	C5.019289,156.371704 2.828696,157.004440 1.000000,158.000000 
	C1.000000,141.312439 1.000000,124.624878 1.346830,107.779030 
	C2.101234,107.114326 2.816582,106.639038 2.871410,106.096947 
	C4.270546,92.263435 9.652236,79.747894 16.124222,67.738487 
	C25.974287,49.460728 39.415077,34.214973 56.776630,22.671692 
	C71.667923,12.770829 87.770554,5.724908 105.569260,2.896236 
	C106.132408,2.806739 106.526886,1.656004 107.000000,1.000000 
z"/>
<path fill="#00A4CB" opacity="1.000000" stroke="none" 
	d="
M259.531342,0.999999 
	C258.891968,2.607989 258.002258,4.434116 256.644714,5.792801 
	C173.106537,89.400452 89.532196,172.971985 5.937181,256.522797 
	C4.668951,257.790375 3.100987,258.758087 1.336453,259.932861 
	C1.000000,247.645767 1.000000,235.291550 1.347087,222.406006 
	C3.605715,220.606644 5.797447,219.619186 7.388499,218.030258 
	C77.697662,147.814270 147.962524,77.553894 218.164093,7.230379 
	C219.840698,5.550866 220.738785,3.094184 222.000000,0.999997 
	C234.354233,1.000000 246.708450,1.000000 259.531342,0.999999 
z"/>
<path fill="#003F63" opacity="1.000000" stroke="none" 
	d="
M316.000000,513.000000 
	C303.645782,513.000000 291.291534,513.000000 278.535889,512.663574 
	C279.242279,510.898895 280.210175,509.330780 281.477905,508.062347 
	C356.572174,432.923279 431.683258,357.800995 506.860016,282.744476 
	C508.509064,281.098083 510.935974,280.230743 513.000000,279.000000 
	C513.000000,291.020905 513.000000,303.041779 512.663574,315.598511 
	C510.898407,317.242493 509.330048,318.210999 508.061066,319.479034 
	C445.133636,382.360748 382.227142,445.263428 319.358612,508.204010 
	C318.000122,509.563995 317.109039,511.390869 316.000000,513.000000 
z"/>
<path fill="#00466A" opacity="1.000000" stroke="none" 
	d="
M513.000000,278.531342 
	C510.935974,280.230743 508.509064,281.098083 506.860016,282.744476 
	C431.683258,357.800995 356.572174,432.923279 281.477905,508.062347 
	C280.210175,509.330780 279.242279,510.898895 278.067230,512.663574 
	C267.645782,513.000000 257.291534,513.000000 246.535828,512.663574 
	C247.243149,510.897858 248.211975,509.328613 249.480789,508.059174 
	C335.695923,421.800018 421.931702,335.561432 508.203461,249.358902 
	C509.563324,248.000107 511.390778,247.109238 513.000000,246.000000 
	C513.000000,256.687561 513.000000,267.375122 513.000000,278.531342 
z"/>
<path fill="#004B6F" opacity="1.000000" stroke="none" 
	d="
M513.000000,245.531342 
	C511.390778,247.109238 509.563324,248.000107 508.203461,249.358902 
	C421.931702,335.561432 335.695923,421.800018 249.480789,508.059174 
	C248.211975,509.328613 247.243149,510.897858 246.067169,512.663574 
	C238.979050,513.000000 231.958099,513.000000 224.480652,512.635925 
	C225.410614,510.286713 226.537079,508.042053 228.221512,506.354248 
	C275.091736,459.389618 322.021942,412.484772 368.920654,365.548462 
	C370.433380,364.034515 371.719147,362.293793 373.542786,360.633057 
	C377.555328,360.178864 381.282104,360.243011 384.689209,359.230927 
	C395.582733,355.994965 406.623505,343.243011 400.123230,325.000458 
	C402.272125,323.496857 404.227722,322.222687 405.844391,320.608978 
	C439.405640,287.109528 472.909546,253.552597 506.511932,220.094559 
	C508.280365,218.333725 510.819611,217.347076 513.000000,216.000000 
	C513.000000,225.687561 513.000000,235.375122 513.000000,245.531342 
z"/>
<path fill="#00385D" opacity="1.000000" stroke="none" 
	d="
M316.468628,513.000000 
	C317.109039,511.390869 318.000122,509.563995 319.358612,508.204010 
	C382.227142,445.263428 445.133636,382.360748 508.061066,319.479034 
	C509.330048,318.210999 510.898407,317.242493 512.663574,316.067139 
	C513.000000,326.687561 513.000000,337.375122 513.000000,348.531342 
	C507.596375,353.781952 502.033966,358.398163 496.827454,363.385864 
	C489.540527,370.366455 482.520599,377.625671 475.383240,384.762512 
	C469.190643,390.954712 462.991089,397.139954 456.799164,403.332825 
	C449.662628,410.470459 442.533936,417.615967 435.396667,424.752869 
	C429.204132,430.945129 423.000702,437.126526 416.808868,443.319489 
	C409.672424,450.457214 402.547089,457.606049 395.409943,464.743073 
	C389.217407,470.935333 382.996460,477.099304 376.822174,483.309662 
	C369.937744,490.234283 363.047577,497.154297 356.252319,504.165863 
	C353.744904,506.753143 351.500732,509.595520 349.068237,512.660767 
	C338.312439,513.000000 327.624878,513.000000 316.468628,513.000000 
z"/>
<path fill="#006085" opacity="1.000000" stroke="none" 
	d="
M137.000000,513.000000 
	C127.312439,513.000000 117.624878,513.000000 107.516953,512.602783 
	C102.394096,510.748291 97.691597,509.291046 93.067192,507.510345 
	C94.045036,506.010071 94.824196,504.712708 95.861977,503.673737 
	C133.056625,466.437531 170.266174,429.216156 207.528107,392.047333 
	C208.880676,390.698120 210.781433,389.898468 212.689331,389.030212 
	C219.842056,397.893280 228.215652,404.769928 237.863312,410.193787 
	C236.338989,411.950745 235.027023,413.458679 233.617432,414.869080 
	C202.762817,445.741211 171.886200,476.591339 141.066010,507.497742 
	C139.473160,509.095001 138.344681,511.155304 137.000000,513.000000 
z"/>
<path fill="#00AAD1" opacity="1.000000" stroke="none" 
	d="
M221.531372,0.999997 
	C220.738785,3.094184 219.840698,5.550866 218.164093,7.230379 
	C147.962524,77.553894 77.697662,147.814270 7.388499,218.030258 
	C5.797447,219.619186 3.605715,220.606644 1.347087,221.937347 
	C1.000000,214.312424 1.000000,206.624832 1.340449,198.399719 
	C5.217927,194.662506 8.847132,191.558151 12.274180,188.244705 
	C21.427082,179.395248 30.574541,170.537292 39.571407,161.530136 
	C49.040531,152.050186 58.248497,142.309250 67.726242,132.838135 
	C76.849823,123.720932 86.263908,114.894348 95.382080,105.771881 
	C104.735977,96.413574 113.784386,86.749649 123.150742,77.404137 
	C135.086395,65.495064 147.247711,53.812531 159.235657,41.955414 
	C169.817444,31.489100 180.370483,20.991083 190.767059,10.341926 
	C193.500168,7.542442 195.606079,4.130625 198.000000,1.000001 
	C205.687576,1.000000 213.375168,1.000000 221.531372,0.999997 
z"/>
<path fill="#008DB4" opacity="1.000000" stroke="none" 
	d="
M1.000002,346.468658 
	C2.842249,344.657745 4.900678,343.532166 6.495008,341.941406 
	C43.117039,305.401733 79.676727,268.799561 116.306923,232.268097 
	C118.001526,230.578064 120.243362,229.436722 122.762192,228.358856 
	C126.288345,236.594757 129.282639,244.511658 132.064453,252.728455 
	C129.553421,255.200165 127.200264,257.317322 124.964432,259.551880 
	C85.479614,299.014252 46.017841,338.499664 6.503812,377.932770 
	C4.906773,379.526550 2.845156,380.654816 0.999997,382.000000 
	C1.000000,370.312439 1.000000,358.624878 1.000002,346.468658 
z"/>
<path fill="#0088AE" opacity="1.000000" stroke="none" 
	d="
M0.999997,382.468628 
	C2.845156,380.654816 4.906773,379.526550 6.503812,377.932770 
	C46.017841,338.499664 85.479614,299.014252 124.964432,259.551880 
	C127.200264,257.317322 129.553421,255.200165 132.326508,252.987976 
	C135.617401,256.001282 138.433807,259.054993 140.606003,261.410217 
	C135.302383,272.687073 129.820786,284.342316 123.974243,296.052490 
	C117.688644,301.332397 111.610939,306.391998 105.887939,311.825165 
	C99.069641,318.298187 92.546402,325.082520 85.912254,331.748810 
	C79.031174,338.663208 72.183380,345.610779 65.296814,352.519745 
	C59.005451,358.831512 52.676529,365.105804 46.373611,371.406097 
	C39.358135,378.418701 32.410530,385.500305 25.327827,392.444214 
	C18.251158,399.382233 11.043968,406.187134 3.573568,412.816101 
	C2.502097,410.721191 1.751052,408.860596 1.000004,407.000000 
	C1.000000,398.979095 1.000000,390.958191 0.999997,382.468628 
z"/>
<path fill="#005175" opacity="1.000000" stroke="none" 
	d="
M513.000000,215.531342 
	C510.819611,217.347076 508.280365,218.333725 506.511932,220.094559 
	C472.909546,253.552597 439.405640,287.109528 405.844391,320.608978 
	C404.227722,322.222687 402.272125,323.496857 399.854980,324.802856 
	C396.335541,318.377228 391.058960,314.744263 385.067993,311.653137 
	C386.244751,309.890808 387.215698,308.326202 388.482880,307.057495 
	C428.362793,267.128693 468.264160,227.221329 508.207458,187.355911 
	C509.567078,185.998917 511.391968,185.108093 513.000000,184.000000 
	C513.000000,194.354233 513.000000,204.708450 513.000000,215.531342 
z"/>
<path fill="#015C81" opacity="1.000000" stroke="none" 
	d="
M513.000000,125.000000 
	C513.000000,131.021149 513.000000,137.042297 512.658997,143.600372 
	C509.919067,145.886566 507.266907,147.377365 505.168518,149.433334 
	C498.764709,155.707794 492.639435,162.265442 486.289062,168.595810 
	C460.899231,193.905548 435.439606,219.145264 410.054962,244.460205 
	C385.358856,269.088531 360.737213,293.791565 336.024536,318.403229 
	C334.555298,319.866455 332.567993,320.809479 330.800262,321.571411 
	C332.548706,309.100250 334.318695,297.052246 336.443970,284.982819 
	C338.294189,284.045288 339.827148,283.184998 341.274841,282.199432 
	C343.262146,280.846527 345.184784,279.398743 347.340057,278.257812 
	C355.103607,284.736969 359.348541,284.636780 365.283112,276.574524 
	C371.841217,267.665192 377.548492,258.129608 384.009338,248.879913 
	C386.426208,247.597321 388.779175,246.621689 390.447174,244.958908 
	C429.159607,206.367813 467.781281,167.685638 506.502563,129.103409 
	C508.273285,127.339073 510.816559,126.350105 513.000000,125.000000 
z"/>
<path fill="#00597E" opacity="1.000000" stroke="none" 
	d="
M330.821777,321.994568 
	C332.567993,320.809479 334.555298,319.866455 336.024536,318.403229 
	C360.737213,293.791565 385.358856,269.088531 410.054962,244.460205 
	C435.439606,219.145264 460.899231,193.905548 486.289062,168.595810 
	C492.639435,162.265442 498.764709,155.707794 505.168518,149.433334 
	C507.266907,147.377365 509.919067,145.886566 512.658997,144.068665 
	C513.000000,149.688034 513.000000,155.376083 512.660095,161.600784 
	C504.995911,169.091995 497.549469,175.923111 490.372681,183.026657 
	C475.250854,197.994171 460.279358,213.113449 445.228943,228.153229 
	C433.704010,239.670013 422.133728,251.141464 410.618195,262.667633 
	C398.282135,275.015137 386.009613,287.426086 373.666748,299.766754 
	C362.033936,311.397552 350.276917,322.905060 338.720703,334.611053 
	C334.913025,338.468079 331.561371,342.775238 327.602295,346.972748 
	C325.607147,347.068909 324.010895,347.068909 322.979950,347.068909 
	C324.531769,342.933228 326.235626,338.935394 327.523834,334.807831 
	C328.836090,330.603210 329.739410,326.270935 330.821777,321.994568 
z"/>
<path fill="#00567A" opacity="1.000000" stroke="none" 
	d="
M328.001221,346.876587 
	C331.561371,342.775238 334.913025,338.468079 338.720703,334.611053 
	C350.276917,322.905060 362.033936,311.397552 373.666748,299.766754 
	C386.009613,287.426086 398.282135,275.015137 410.618195,262.667633 
	C422.133728,251.141464 433.704010,239.670013 445.228943,228.153229 
	C460.279358,213.113449 475.250854,197.994171 490.372681,183.026657 
	C497.549469,175.923111 504.995911,169.091995 512.660095,162.068726 
	C513.000000,169.020950 513.000000,176.041901 513.000000,183.531418 
	C511.391968,185.108093 509.567078,185.998917 508.207458,187.355911 
	C468.264160,227.221329 428.362793,267.128693 388.482880,307.057495 
	C387.215698,308.326202 386.244751,309.890808 384.646545,311.683929 
	C375.009491,310.042419 366.969421,311.359070 359.602509,317.992218 
	C351.898193,324.929138 352.218506,333.806183 351.935364,344.046631 
	C343.915131,344.994934 335.958191,345.935760 328.001221,346.876587 
z"/>
<path fill="#000000" opacity="1.000000" stroke="none" 
	d="
M407.468689,513.000000 
	C408.112213,512.310303 409.144989,511.235291 410.348267,510.987213 
	C439.111816,505.057251 463.315125,491.014465 482.403931,468.897156 
	C497.129425,451.835327 506.830475,431.951843 511.030884,409.602234 
	C511.196838,408.719025 511.828400,407.923309 512.621460,407.043396 
	C513.000000,442.260284 513.000000,477.520538 513.000000,513.000000 
	C477.979401,513.000000 442.958374,513.000000 407.468689,513.000000 
z"/>
<path fill="#000000" opacity="1.000000" stroke="none" 
	d="
M407.000000,1.000001 
	C442.260284,1.000000 477.520538,1.000000 513.000000,1.000000 
	C513.000000,36.020588 513.000000,71.041634 512.636963,106.627335 
	C511.793549,106.126854 511.313171,105.061729 510.885010,103.596954 
	C508.666382,96.121361 506.395569,89.045425 504.070435,81.594276 
	C499.026459,72.110283 494.036835,63.001499 488.891296,53.592705 
	C482.172607,46.158241 475.609863,39.023781 468.890930,31.589394 
	C467.201050,30.073948 465.762665,28.707331 464.116852,27.669687 
	C457.794312,23.683445 451.405273,19.802670 444.852417,15.589624 
	C436.457489,12.159834 428.251160,9.022962 419.819214,5.572281 
	C415.667664,4.457129 411.730896,3.701913 407.832397,2.784029 
	C407.436859,2.690904 407.271942,1.618148 407.000000,1.000001 
z"/>
<path fill="#000000" opacity="1.000000" stroke="none" 
	d="
M1.000004,407.468658 
	C1.751052,408.860596 2.502097,410.721191 3.612471,413.222595 
	C6.612538,421.592468 9.253276,429.321564 11.946872,437.413208 
	C14.388822,442.181274 16.777914,446.586792 19.217213,451.333130 
	C22.494783,456.150909 25.722147,460.627899 29.092068,465.410767 
	C33.476288,470.182617 37.717957,474.648621 42.104805,479.413330 
	C48.692677,484.418579 55.135365,489.125122 61.760906,494.099670 
	C68.287888,497.602020 74.532227,501.057159 81.014168,503.986572 
	C84.810074,505.702087 88.984787,506.579407 92.989105,507.833771 
	C97.691597,509.291046 102.394096,510.748291 107.048294,512.602783 
	C71.739723,513.000000 36.479446,513.000000 1.000000,513.000000 
	C1.000000,477.979401 1.000000,442.958374 1.000004,407.468658 
z"/>
<path fill="#000000" opacity="1.000000" stroke="none" 
	d="
M106.531342,1.000000 
	C106.526886,1.656004 106.132408,2.806739 105.569260,2.896236 
	C87.770554,5.724908 71.667923,12.770829 56.776630,22.671692 
	C39.415077,34.214973 25.974287,49.460728 16.124222,67.738487 
	C9.652236,79.747894 4.270546,92.263435 2.871410,106.096947 
	C2.816582,106.639038 2.101234,107.114326 1.346830,107.310371 
	C1.000000,71.739723 1.000000,36.479443 1.000000,1.000000 
	C36.020588,1.000000 71.041634,1.000000 106.531342,1.000000 
z"/>
<path fill="#008DB3" opacity="1.000000" stroke="none" 
	d="
M252.225342,100.670807 
	C253.468475,98.295639 254.223068,95.435394 256.027771,93.617775 
	C284.884949,64.554199 313.883423,35.630955 342.816467,6.642589 
	C344.318329,5.137856 345.522736,3.336258 346.932800,1.336438 
	C357.354218,1.000000 367.708466,1.000000 378.512604,1.360887 
	C377.693726,3.595737 376.686859,5.730764 375.117523,7.305162 
	C343.184692,39.340878 311.191986,71.316940 279.187927,103.281586 
	C277.789124,104.678642 276.168335,105.853462 274.341766,107.018066 
	C267.773285,101.293854 260.343170,99.779366 252.225342,100.670807 
z"/>
<path fill="#00587C" opacity="1.000000" stroke="none" 
	d="
M137.468658,513.000000 
	C138.344681,511.155304 139.473160,509.095001 141.066010,507.497742 
	C171.886200,476.591339 202.762817,445.741211 233.617432,414.869080 
	C235.027023,413.458679 236.338989,411.950745 238.243439,410.218933 
	C246.925934,413.225128 255.338638,414.534882 264.361511,413.714294 
	C263.781006,415.756561 263.344208,418.023071 261.993835,419.381073 
	C232.950378,448.588928 203.784439,477.674988 174.732452,506.874390 
	C173.092575,508.522552 172.226334,510.940399 171.000000,513.000000 
	C159.979111,513.000000 148.958206,513.000000 137.468658,513.000000 
z"/>
<path fill="#0085AB" opacity="1.000000" stroke="none" 
	d="
M406.562500,1.000001 
	C407.271942,1.618148 407.436859,2.690904 407.832397,2.784029 
	C411.730896,3.701913 415.667664,4.457129 419.747711,5.916236 
	C418.805817,8.011356 417.858185,9.596900 416.592255,10.864567 
	C377.384674,50.124779 338.153107,89.361053 298.882202,128.557892 
	C297.518646,129.918869 295.714661,130.838531 293.799896,131.839890 
	C290.645172,129.501114 287.656158,127.448135 285.028656,125.006172 
	C283.627380,123.703827 282.850739,121.729378 282.142120,119.988678 
	C283.818665,118.955231 285.302826,118.149193 286.449066,117.004677 
	C323.323822,80.185440 360.179871,43.347343 396.960144,6.433808 
	C398.370605,5.018254 399.004333,2.828815 400.000000,0.999996 
	C402.041656,1.000000 404.083344,1.000000 406.562500,1.000001 
z"/>
<path fill="#006085" opacity="1.000000" stroke="none" 
	d="
M510.832794,103.996605 
	C511.313171,105.061729 511.793549,106.126854 512.636963,107.095993 
	C513.000000,112.688042 513.000000,118.376083 513.000000,124.532059 
	C510.816559,126.350105 508.273285,127.339073 506.502563,129.103409 
	C467.781281,167.685638 429.159607,206.367813 390.447174,244.958908 
	C388.779175,246.621689 386.426208,247.597321 384.095490,248.517944 
	C386.630676,238.366180 389.462646,228.589539 392.680939,218.813293 
	C394.921783,217.498840 397.009521,216.417847 398.596527,214.834824 
	C434.216370,179.304459 469.772522,143.710297 505.384491,108.171989 
	C506.990295,106.569496 509.007294,105.378990 510.832794,103.996605 
z"/>
<path fill="#004E72" opacity="1.000000" stroke="none" 
	d="
M373.110718,360.658752 
	C371.719147,362.293793 370.433380,364.034515 368.920654,365.548462 
	C322.021942,412.484772 275.091736,459.389618 228.221512,506.354248 
	C226.537079,508.042053 225.410614,510.286713 224.012070,512.635925 
	C218.643082,513.000000 213.286163,513.000000 207.483368,512.639160 
	C208.425568,510.285004 209.550858,508.029480 211.240051,506.336670 
	C256.744110,460.736511 302.319244,415.207214 347.808350,369.592133 
	C349.579926,367.815643 350.620667,365.310333 352.342102,362.980042 
	C359.413483,361.354889 365.690826,355.595612 373.110718,360.658752 
z"/>
<path fill="#015479" opacity="1.000000" stroke="none" 
	d="
M171.468292,513.000000 
	C172.226334,510.940399 173.092575,508.522552 174.732452,506.874390 
	C203.784439,477.674988 232.950378,448.588928 261.993835,419.381073 
	C263.344208,418.023071 263.781006,415.756561 264.732971,413.543274 
	C283.043732,409.710327 295.218658,397.892517 305.591614,383.616699 
	C309.408508,378.363678 313.192719,373.053864 309.753693,366.134979 
	C317.796387,366.134979 325.399139,366.134979 332.925842,366.464783 
	C329.336945,370.704163 325.916382,374.701813 322.291077,378.504242 
	C315.692627,385.425140 309.052460,392.310211 302.280273,399.060303 
	C295.863190,405.456512 289.142487,411.549133 282.756897,417.975555 
	C273.463928,427.327850 264.459412,436.967529 255.131973,446.284515 
	C245.922562,455.483643 236.399796,464.368256 227.132782,473.510712 
	C216.576752,483.924866 206.082214,494.403992 195.723862,505.013947 
	C193.462128,507.330597 191.889801,510.320282 190.000000,513.000000 
	C183.978851,513.000000 177.957703,513.000000 171.468292,513.000000 
z"/>
<path fill="#00ADD4" opacity="1.000000" stroke="none" 
	d="
M197.535355,1.000001 
	C195.606079,4.130625 193.500168,7.542442 190.767059,10.341926 
	C180.370483,20.991083 169.817444,31.489100 159.235657,41.955414 
	C147.247711,53.812531 135.086395,65.495064 123.150742,77.404137 
	C113.784386,86.749649 104.735977,96.413574 95.382080,105.771881 
	C86.263908,114.894348 76.849823,123.720932 67.726242,132.838135 
	C58.248497,142.309250 49.040531,152.050186 39.571407,161.530136 
	C30.574541,170.537292 21.427082,179.395248 12.274180,188.244705 
	C8.847132,191.558151 5.217927,194.662506 1.340449,197.931091 
	C1.000000,193.643097 1.000000,189.286194 1.360890,184.445908 
	C3.361360,182.928024 5.264342,182.157333 6.602625,180.821075 
	C64.772034,122.739609 122.900238,64.616844 180.964554,6.430346 
	C182.374466,5.017487 183.005630,2.827517 184.000000,0.999999 
	C188.356903,1.000000 192.713806,1.000000 197.535355,1.000001 
z"/>
<path fill="#005175" opacity="1.000000" stroke="none" 
	d="
M190.467590,513.000000 
	C191.889801,510.320282 193.462128,507.330597 195.723862,505.013947 
	C206.082214,494.403992 216.576752,483.924866 227.132782,473.510712 
	C236.399796,464.368256 245.922562,455.483643 255.131973,446.284515 
	C264.459412,436.967529 273.463928,427.327850 282.756897,417.975555 
	C289.142487,411.549133 295.863190,405.456512 302.280273,399.060303 
	C309.052460,392.310211 315.692627,385.425140 322.291077,378.504242 
	C325.916382,374.701813 329.336945,370.704163 333.346588,366.361633 
	C339.896210,365.000671 345.949066,364.072601 352.001923,363.144592 
	C350.620667,365.310333 349.579926,367.815643 347.808350,369.592133 
	C302.319244,415.207214 256.744110,460.736511 211.240051,506.336670 
	C209.550858,508.029480 208.425568,510.285004 207.018738,512.639160 
	C201.645065,513.000000 196.290146,513.000000 190.467590,513.000000 
z"/>
<path fill="#0089AF" opacity="1.000000" stroke="none" 
	d="
M399.531464,0.999996 
	C399.004333,2.828815 398.370605,5.018254 396.960144,6.433808 
	C360.179871,43.347343 323.323822,80.185440 286.449066,117.004677 
	C285.302826,118.149193 283.818665,118.955231 281.913208,119.716217 
	C279.106567,115.386177 276.878754,111.258995 274.650970,107.131813 
	C276.168335,105.853462 277.789124,104.678642 279.187927,103.281586 
	C311.191986,71.316940 343.184692,39.340878 375.117523,7.305162 
	C376.686859,5.730764 377.693726,3.595737 378.981262,1.360887 
	C385.687653,1.000000 392.375275,1.000000 399.531464,0.999996 
z"/>
<path fill="#00B1D8" opacity="1.000000" stroke="none" 
	d="
M1.000000,158.464645 
	C2.828696,157.004440 5.019289,156.371704 6.433743,154.960846 
	C55.952965,105.567192 105.406303,56.107460 154.817657,6.605864 
	C156.154861,5.266212 156.926926,3.362470 157.981262,1.360891 
	C162.356903,1.000000 166.713806,1.000000 171.516632,1.360889 
	C170.925873,3.363540 170.152908,5.268566 168.814545,6.609133 
	C115.004715,60.507805 61.155037,114.366745 7.236934,168.157059 
	C5.554490,169.835526 3.096456,170.736542 1.000000,172.000000 
	C1.000000,167.643097 1.000000,163.286194 1.000000,158.464645 
z"/>
<path fill="#00AFD6" opacity="1.000000" stroke="none" 
	d="
M1.000000,172.460632 
	C3.096456,170.736542 5.554490,169.835526 7.236934,168.157059 
	C61.155037,114.366745 115.004715,60.507805 168.814545,6.609133 
	C170.152908,5.268566 170.925873,3.363540 171.981262,1.360889 
	C175.692902,1.000000 179.385818,1.000000 183.539368,0.999999 
	C183.005630,2.827517 182.374466,5.017487 180.964554,6.430346 
	C122.900238,64.616844 64.772034,122.739609 6.602625,180.821075 
	C5.264342,182.157333 3.361360,182.928024 1.360890,183.981262 
	C1.000000,180.307098 1.000000,176.614182 1.000000,172.460632 
z"/>
<path fill="#FCFDFE" opacity="1.000000" stroke="none" 
	d="
M274.341766,107.018066 
	C276.878754,111.258995 279.106567,115.386177 281.563293,119.785820 
	C282.850739,121.729378 283.627380,123.703827 285.028656,125.006172 
	C287.656158,127.448135 290.645172,129.501114 293.932556,132.142654 
	C299.559723,139.102798 304.738220,145.636169 309.975220,152.511902 
	C312.748932,157.956070 315.464111,163.057877 318.348846,168.478271 
	C321.519623,163.658585 325.988800,162.639740 331.076477,163.097687 
	C334.379395,163.394974 337.694275,163.559753 341.407715,163.886627 
	C351.882965,165.431259 361.311188,168.739563 370.396027,173.984497 
	C378.793427,179.409500 384.404999,186.817108 388.927246,195.573715 
	C390.063538,203.575027 391.179077,211.193954 392.294617,218.812897 
	C389.462646,228.589539 386.630676,238.366180 383.712524,248.504791 
	C377.548492,258.129608 371.841217,267.665192 365.283112,276.574524 
	C359.348541,284.636780 355.103607,284.736969 347.382507,277.876007 
	C345.635742,272.900238 346.887329,269.344421 349.551392,265.689758 
	C354.908081,258.341339 360.279236,250.940842 364.849060,243.098389 
	C369.845734,234.523514 373.128296,225.193359 373.057678,214.569763 
	C373.596283,203.607101 368.440796,196.115234 359.978394,190.060974 
	C348.723602,183.144409 336.389862,182.491669 323.983307,181.738632 
	C326.954895,193.742493 329.846710,205.424011 332.717102,217.540665 
	C333.840576,227.985016 334.985413,237.994217 336.069885,248.468445 
	C336.035858,260.957062 336.062256,272.980621 336.088684,285.004211 
	C334.318695,297.052246 332.548706,309.100250 330.800262,321.571411 
	C329.739410,326.270935 328.836090,330.603210 327.523834,334.807831 
	C326.235626,338.935394 324.531769,342.933228 322.979950,347.068909 
	C324.010895,347.068909 325.607147,347.068909 327.602295,346.972748 
	C335.958191,345.935760 343.915131,344.994934 351.935364,344.046631 
	C352.218506,333.806183 351.898193,324.929138 359.602509,317.992218 
	C366.969421,311.359070 375.009491,310.042419 384.578827,312.019592 
	C391.058960,314.744263 396.335541,318.377228 399.503845,324.874146 
	C406.623505,343.243011 395.582733,355.994965 384.689209,359.230927 
	C381.282104,360.243011 377.555328,360.178864 373.542816,360.633087 
	C365.690826,355.595612 359.413483,361.354889 352.342102,362.980011 
	C345.949066,364.072601 339.896210,365.000671 333.422607,366.031860 
	C325.399139,366.134979 317.796387,366.134979 309.753693,366.134979 
	C313.192719,373.053864 309.408508,378.363678 305.591614,383.616699 
	C295.218658,397.892517 283.043732,409.710327 264.451233,413.344421 
	C255.338638,414.534882 246.925934,413.225128 238.410309,409.924438 
	C228.215652,404.769928 219.842056,397.893280 212.555389,388.705872 
	C210.895630,386.438599 209.515976,384.754456 208.389740,382.915161 
	C203.923431,375.621094 199.536346,368.278503 195.084808,360.559967 
	C193.644775,355.962372 192.191772,351.773804 190.866058,347.545319 
	C190.498413,346.372681 189.932419,344.716339 190.444870,343.907715 
	C192.732315,340.298248 195.072006,336.427551 199.996017,336.086060 
	C204.567429,335.769012 207.232590,338.699341 209.540787,342.571167 
	C214.106232,351.949219 218.558807,360.962494 223.086273,370.310669 
	C228.683487,376.467133 234.205826,382.288696 239.916443,388.410339 
	C253.369644,398.151917 267.816071,395.511414 278.208130,385.515442 
	C284.948029,379.032471 290.504883,371.319580 297.009003,363.666870 
	C287.291595,361.217651 278.666107,359.043640 269.794006,356.607208 
	C261.039825,353.202026 252.532288,350.059296 243.805450,346.645081 
	C235.103531,342.144623 226.620926,337.915649 217.903824,333.445923 
	C210.833389,328.966736 203.997452,324.728333 196.954681,320.243683 
	C191.564499,316.149811 186.381165,312.302155 181.015961,308.194702 
	C175.857773,303.636475 170.881424,299.338104 165.733185,294.754761 
	C161.277847,290.028503 156.994415,285.587280 152.496689,280.923859 
	C146.854767,290.028137 142.303146,299.872894 141.294479,311.082642 
	C144.073517,312.172852 146.519318,313.132324 149.105896,314.401642 
	C155.185959,317.353851 158.207764,322.519836 160.815552,328.474854 
	C165.991852,345.703033 151.165451,364.130371 130.626373,360.090698 
	C126.606438,357.927979 122.963699,355.888733 119.183868,353.530457 
	C115.274582,349.178558 112.885674,344.457184 112.035271,338.563843 
	C111.718117,330.242706 114.237488,323.502930 119.680656,317.715088 
	C120.881248,316.438477 121.457024,314.339111 121.785950,312.521851 
	C122.778282,307.039337 123.507431,301.509186 124.339188,295.997589 
	C129.820786,284.342316 135.302383,272.687073 140.606003,261.410217 
	C138.433807,259.054993 135.617401,256.001282 132.538971,252.688049 
	C129.282639,244.511658 126.288345,236.594757 123.119675,228.339691 
	C123.123184,218.954391 121.681488,209.507141 123.798332,200.939056 
	C129.061035,179.637833 145.401657,169.552811 165.541885,165.217987 
	C173.890579,163.421097 182.663788,163.596573 192.052765,162.893463 
	C198.605453,163.338440 204.382751,163.512680 210.083145,164.267471 
	C215.087982,164.930130 220.388336,165.360657 223.811478,170.469971 
	C226.108643,178.682388 222.543457,183.565125 213.576752,184.262329 
	C205.436295,183.462036 197.719208,182.777924 189.546631,181.997864 
	C181.990219,182.601730 174.715942,182.557098 167.825638,184.161514 
	C154.838837,187.185471 143.736343,193.599808 141.649292,208.115173 
	C140.671097,214.918640 142.727127,222.158371 143.492401,229.579330 
	C146.259415,236.108780 148.942108,242.259277 151.377167,247.842026 
	C164.315613,236.426529 176.734283,225.469635 189.475006,214.364197 
	C195.690872,209.920761 201.226730,204.982132 207.552765,201.464508 
	C220.864395,194.062546 234.590515,187.405975 248.511871,180.342865 
	C263.829163,174.096313 279.120728,169.086945 295.657776,166.182526 
	C291.247375,158.725845 286.894867,151.377975 279.939819,145.526459 
	C278.469421,144.071579 277.140381,142.916306 275.825348,141.773224 
	C266.914337,150.556000 257.048187,151.991257 245.904633,147.452072 
	C235.788803,141.693893 231.507675,133.173233 232.175690,121.994484 
	C234.758026,111.384689 240.689667,103.869286 251.916748,100.816010 
	C260.343170,99.779366 267.773285,101.293854 274.341766,107.018066 
M314.340240,304.270050 
	C315.203644,293.847137 316.067017,283.424255 317.139587,272.084015 
	C316.958466,263.389832 316.777374,254.695679 316.733429,245.181625 
	C315.575836,236.750854 314.418243,228.320084 313.291443,219.055145 
	C311.450287,211.371002 309.609131,203.686859 307.759460,195.273575 
	C306.051239,190.426620 304.343048,185.579666 302.970459,181.684998 
	C298.901031,183.327332 295.590240,184.852509 292.153656,186.001282 
	C288.108093,187.353607 283.953491,188.379639 279.070587,189.654236 
	C264.383728,195.861633 249.696854,202.069031 234.354980,208.435089 
	C206.397720,223.875839 181.028732,242.443787 162.019653,267.114349 
	C165.977585,269.700714 169.435226,271.960175 173.157608,274.823059 
	C177.117279,278.544006 181.076965,282.264984 185.332581,286.584778 
	C191.155960,291.211670 196.979340,295.838531 203.209625,300.968384 
	C209.062943,304.823120 214.916260,308.677856 221.249115,312.982788 
	C227.168228,316.243011 233.087341,319.503204 239.581345,323.190063 
	C245.351852,325.808533 251.122375,328.426971 257.394958,331.571167 
	C264.596405,334.048157 271.797821,336.525146 279.572693,339.467194 
	C289.472656,341.891724 299.372620,344.316254 309.272583,346.740814 
	C306.168091,341.667480 306.930084,337.240845 308.037872,332.561462 
	C310.202484,323.418365 312.015656,314.192047 314.340240,304.270050 
M371.273895,335.571259 
	C372.902771,341.281952 377.569275,343.530609 380.798279,339.928375 
	C382.009125,338.577606 382.890228,335.782227 382.305664,334.270294 
	C381.618561,332.493164 378.859161,330.012329 377.561890,330.308075 
	C375.284302,330.827332 373.435516,333.227295 371.273895,335.571259 
M253.234070,129.447891 
	C256.025482,131.646042 259.159515,131.685394 261.143829,128.980179 
	C262.312469,127.386925 262.710449,123.997177 261.767395,122.432816 
	C260.826294,120.871750 257.699524,119.725189 255.672592,119.914330 
	C251.740448,120.281265 250.724472,124.030945 253.234070,129.447891 
M141.478302,339.154602 
	C143.662445,335.426239 143.047134,332.312561 139.000549,330.590057 
	C135.426300,329.068665 132.529633,330.681885 131.620193,334.215607 
	C131.187012,335.898773 132.150620,339.328156 133.283005,339.734802 
	C135.545441,340.547333 138.360413,339.821228 141.478302,339.154602 
z"/>
<path fill="#018CB2" opacity="1.000000" stroke="none" 
	d="
M231.826508,122.054939 
	C231.507675,133.173233 235.788803,141.693893 245.828934,147.807037 
	C240.411880,154.340225 234.942673,160.322479 229.286697,166.122559 
	C227.724579,167.724487 225.606216,168.783997 223.743073,170.092392 
	C220.388336,165.360657 215.087982,164.930130 210.083145,164.267471 
	C204.382751,163.512680 198.605453,163.338440 192.480331,162.825790 
	C192.774445,161.288925 193.117706,159.510483 194.176163,158.437668 
	C205.698074,146.759308 217.323227,135.182632 228.958054,123.616302 
	C229.630554,122.947762 230.630020,122.608109 231.826508,122.054939 
z"/>
<path fill="#00698E" opacity="1.000000" stroke="none" 
	d="
M195.119904,360.953918 
	C199.536346,368.278503 203.923431,375.621094 208.389740,382.915161 
	C209.515976,384.754456 210.895630,386.438599 212.292755,388.518372 
	C210.781433,389.898468 208.880676,390.698120 207.528107,392.047333 
	C170.266174,429.216156 133.056625,466.437531 95.861977,503.673737 
	C94.824196,504.712708 94.045036,506.010071 93.067192,507.510345 
	C88.984787,506.579407 84.810074,505.702087 81.014168,503.986572 
	C74.532227,501.057159 68.287888,497.602020 61.956207,493.743713 
	C62.921932,491.970673 63.789921,490.736359 64.840759,489.684753 
	C106.755722,447.740845 148.680496,405.806702 190.649612,363.917053 
	C191.889923,362.679077 193.618835,361.930634 195.119904,360.953918 
z"/>
<path fill="#0082A7" opacity="1.000000" stroke="none" 
	d="
M123.974258,296.052490 
	C123.507431,301.509186 122.778282,307.039337 121.785950,312.521851 
	C121.457024,314.339111 120.881248,316.438477 119.680656,317.715088 
	C114.237488,323.502930 111.718117,330.242706 111.700691,338.632050 
	C109.645439,340.482269 107.850929,341.691681 106.347351,343.192566 
	C76.455032,373.031158 46.600433,402.907562 16.719072,432.757141 
	C15.198466,434.276154 13.506290,435.623413 11.894008,437.050659 
	C9.253276,429.321564 6.612538,421.592468 3.932897,413.456879 
	C11.043968,406.187134 18.251158,399.382233 25.327827,392.444214 
	C32.410530,385.500305 39.358135,378.418701 46.373611,371.406097 
	C52.676529,365.105804 59.005451,358.831512 65.296814,352.519745 
	C72.183380,345.610779 79.031174,338.663208 85.912254,331.748810 
	C92.546402,325.082520 99.069641,318.298187 105.887939,311.825165 
	C111.610939,306.391998 117.688644,301.332397 123.974258,296.052490 
z"/>
<path fill="#02658A" opacity="1.000000" stroke="none" 
	d="
M372.962036,215.000946 
	C373.128296,225.193359 369.845734,234.523514 364.849060,243.098389 
	C360.279236,250.940842 354.908081,258.341339 349.551392,265.689758 
	C346.887329,269.344421 345.635742,272.900238 347.177582,277.609802 
	C345.184784,279.398743 343.262146,280.846527 341.274841,282.199432 
	C339.827148,283.184998 338.294189,284.045288 336.443939,284.982819 
	C336.062256,272.980621 336.035858,260.957062 336.396851,248.393799 
	C338.198456,246.726532 339.731140,245.718307 341.007996,244.452118 
	C349.748596,235.784653 358.377197,227.003159 367.194427,218.415054 
	C368.749817,216.900085 371.021271,216.120255 372.962036,215.000946 
z"/>
<path fill="#00799F" opacity="1.000000" stroke="none" 
	d="
M341.003784,163.783905 
	C337.694275,163.559753 334.379395,163.394974 331.076477,163.097687 
	C325.988800,162.639740 321.519623,163.658585 318.348846,168.478271 
	C315.464111,163.057877 312.748932,157.956070 310.147400,152.213669 
	C310.791931,150.933701 311.275391,150.246964 311.860413,149.661743 
	C354.965881,106.539932 398.082092,63.428825 441.180084,20.299496 
	C442.559265,18.919319 443.758118,17.358923 445.041046,15.882538 
	C451.405273,19.802670 457.794312,23.683445 464.116852,27.669687 
	C465.762665,28.707331 467.201050,30.073948 468.818634,31.933191 
	C467.453766,34.365871 466.152466,36.302120 464.534576,37.922226 
	C424.656372,77.855606 384.730835,117.741760 344.887268,157.709610 
	C343.229675,159.372391 342.282135,161.743027 341.003784,163.783905 
z"/>
<path fill="#007297" opacity="1.000000" stroke="none" 
	d="
M341.407715,163.886627 
	C342.282135,161.743027 343.229675,159.372391 344.887268,157.709610 
	C384.730835,117.741760 424.656372,77.855606 464.534576,37.922226 
	C466.152466,36.302120 467.453766,34.365871 468.974854,32.233124 
	C475.609863,39.023781 482.172607,46.158241 488.818542,53.936295 
	C487.569519,56.251564 486.384491,58.070190 484.883514,59.573418 
	C448.519806,95.992355 412.126495,132.381744 375.718353,168.756287 
	C373.956635,170.516357 372.011230,172.092545 370.151367,173.754349 
	C361.311188,168.739563 351.882965,165.431259 341.407715,163.886627 
z"/>
<path fill="#006A90" opacity="1.000000" stroke="none" 
	d="
M370.396027,173.984497 
	C372.011230,172.092545 373.956635,170.516357 375.718353,168.756287 
	C412.126495,132.381744 448.519806,95.992355 484.883514,59.573418 
	C486.384491,58.070190 487.569519,56.251564 488.974487,54.236301 
	C494.036835,63.001499 499.026459,72.110283 503.724884,81.662338 
	C501.762482,83.430290 499.942230,84.605553 498.442322,86.101921 
	C472.431519,112.051125 446.478882,138.058578 420.470947,164.010666 
	C410.002106,174.457001 399.431030,184.800842 388.906494,195.191345 
	C384.404999,186.817108 378.793427,179.409500 370.396027,173.984497 
z"/>
<path fill="#0080A6" opacity="1.000000" stroke="none" 
	d="
M444.852417,15.589622 
	C443.758118,17.358923 442.559265,18.919319 441.180084,20.299496 
	C398.082092,63.428825 354.965881,106.539932 311.860413,149.661743 
	C311.275391,150.246964 310.791931,150.933701 310.088898,151.871292 
	C304.738220,145.636169 299.559723,139.102798 294.248596,132.266663 
	C295.714661,130.838531 297.518646,129.918869 298.882202,128.557892 
	C338.153107,89.361053 377.384674,50.124779 416.592255,10.864567 
	C417.858185,9.596900 418.805817,8.011356 419.973328,6.230043 
	C428.251160,9.022962 436.457489,12.159834 444.852417,15.589622 
z"/>
<path fill="#006489" opacity="1.000000" stroke="none" 
	d="
M388.927246,195.573715 
	C399.431030,184.800842 410.002106,174.457001 420.470947,164.010666 
	C446.478882,138.058578 472.431519,112.051125 498.442322,86.101921 
	C499.942230,84.605553 501.762482,83.430290 503.779236,82.037552 
	C506.395569,89.045425 508.666382,96.121361 510.885010,103.596947 
	C509.007294,105.378990 506.990295,106.569496 505.384491,108.171989 
	C469.772522,143.710297 434.216370,179.304459 398.596527,214.834824 
	C397.009521,216.417847 394.921783,217.498840 392.680939,218.813293 
	C391.179077,211.193954 390.063538,203.575027 388.927246,195.573715 
z"/>
<path fill="#007095" opacity="1.000000" stroke="none" 
	d="
M195.084824,360.559998 
	C193.618835,361.930634 191.889923,362.679077 190.649612,363.917053 
	C148.680496,405.806702 106.755722,447.740845 64.840759,489.684753 
	C63.789921,490.736359 62.921932,491.970673 61.773354,493.475708 
	C55.135365,489.125122 48.692677,484.418579 42.175514,479.069092 
	C43.548206,476.636597 44.846584,474.698425 46.464134,473.079071 
	C95.169106,424.320984 143.915558,375.604279 192.598099,326.823853 
	C194.412781,325.005493 195.653366,322.614197 197.161514,320.489929 
	C203.997452,324.728333 210.833389,328.966736 217.734741,333.757874 
	C215.009430,336.942535 212.218689,339.574432 209.427933,342.206360 
	C207.232590,338.699341 204.567429,335.769012 199.996017,336.086060 
	C195.072006,336.427551 192.732315,340.298248 190.444870,343.907715 
	C189.932419,344.716339 190.498413,346.372681 190.866058,347.545319 
	C192.191772,351.773804 193.644775,355.962372 195.084824,360.559998 
z"/>
<path fill="#00759B" opacity="1.000000" stroke="none" 
	d="
M196.954681,320.243683 
	C195.653366,322.614197 194.412781,325.005493 192.598099,326.823853 
	C143.915558,375.604279 95.169106,424.320984 46.464134,473.079071 
	C44.846584,474.698425 43.548206,476.636597 42.030334,478.770386 
	C37.717957,474.648621 33.476288,470.182617 29.262665,465.116760 
	C30.646753,463.058319 31.958443,461.555420 33.365353,460.147705 
	C64.627480,428.868500 95.917580,397.617218 127.122063,366.280640 
	C128.777328,364.618408 129.725983,362.252533 131.003571,360.214203 
	C151.165451,364.130371 165.991852,345.703033 161.165558,328.403809 
	C168.062515,321.431335 174.630173,314.942932 181.197815,308.454529 
	C186.381165,312.302155 191.564499,316.149811 196.954681,320.243683 
z"/>
<path fill="#007DA2" opacity="1.000000" stroke="none" 
	d="
M11.946866,437.413208 
	C13.506290,435.623413 15.198466,434.276154 16.719072,432.757141 
	C46.600433,402.907562 76.455032,373.031158 106.347351,343.192566 
	C107.850929,341.691681 109.645439,340.482269 111.639069,339.068909 
	C112.885674,344.457184 115.274582,349.178558 118.872818,353.701599 
	C117.110100,355.650330 115.465172,357.052704 113.940903,358.575806 
	C84.769112,387.725067 55.634838,416.911926 26.400766,445.998535 
	C24.356737,448.032227 21.594994,449.344574 19.167007,450.992371 
	C16.777914,446.586792 14.388822,442.181274 11.946866,437.413208 
z"/>
<path fill="#00799F" opacity="1.000000" stroke="none" 
	d="
M19.217216,451.333130 
	C21.594994,449.344574 24.356737,448.032227 26.400766,445.998535 
	C55.634838,416.911926 84.769112,387.725067 113.940903,358.575806 
	C115.465172,357.052704 117.110100,355.650330 119.009918,354.020630 
	C122.963699,355.888733 126.606438,357.927979 130.626373,360.090698 
	C129.725983,362.252533 128.777328,364.618408 127.122063,366.280640 
	C95.917580,397.617218 64.627480,428.868500 33.365353,460.147705 
	C31.958443,461.555420 30.646753,463.058319 29.120110,464.810852 
	C25.722147,460.627899 22.494783,456.150909 19.217216,451.333130 
z"/>
<path fill="#01799E" opacity="1.000000" stroke="none" 
	d="
M279.846161,189.547165 
	C283.953491,188.379639 288.108093,187.353607 292.153656,186.001282 
	C295.590240,184.852509 298.901031,183.327332 302.970459,181.684998 
	C304.343048,185.579666 306.051239,190.426620 307.417725,195.661407 
	C305.576904,197.006729 303.848175,197.732697 302.613892,198.957123 
	C288.689056,212.770386 274.821136,226.641281 261.003326,240.561661 
	C259.768219,241.805984 258.990387,243.504242 257.608765,245.083710 
	C243.152054,247.364899 237.934875,253.164444 237.240936,267.030396 
	C234.818680,268.320007 232.416092,269.249695 230.711792,270.900360 
	C222.727341,278.633575 214.883179,286.514496 207.114899,294.465759 
	C205.413239,296.207489 204.226547,298.452301 202.802704,300.465424 
	C196.979340,295.838531 191.155960,291.211670 185.467056,286.115051 
	C216.289261,255.040009 246.987717,224.445389 277.620239,193.784897 
	C278.697205,192.706970 279.119019,190.974548 279.846161,189.547165 
z"/>
<path fill="#017EA3" opacity="1.000000" stroke="none" 
	d="
M279.458374,189.600708 
	C279.119019,190.974548 278.697205,192.706970 277.620239,193.784897 
	C246.987717,224.445389 216.289261,255.040009 185.319092,285.815643 
	C181.076965,282.264984 177.117279,278.544006 173.197357,274.218018 
	C182.248993,264.471802 191.236633,255.306519 200.279099,246.195679 
	C210.704666,235.691284 221.246567,225.300919 231.561478,214.689514 
	C233.188370,213.015869 233.883865,210.436859 235.009995,208.276428 
	C249.696854,202.069031 264.383728,195.861633 279.458374,189.600708 
z"/>
<path fill="#016E93" opacity="1.000000" stroke="none" 
	d="
M239.006454,322.763428 
	C233.087341,319.503204 227.168228,316.243011 221.180115,312.428131 
	C228.956924,303.773346 236.848862,295.716949 244.606415,287.533173 
	C246.018631,286.043365 246.881821,284.033142 248.366119,282.345459 
	C250.789536,282.972229 252.819931,283.849060 254.905121,284.008240 
	C270.540192,285.201721 279.813751,272.081146 275.043884,255.921692 
	C285.871216,245.370178 296.352234,234.942444 306.943298,224.627655 
	C308.813477,222.806290 311.143158,221.456726 313.260651,219.889313 
	C314.418243,228.320084 315.575836,236.750854 316.311951,245.600174 
	C314.194946,246.911636 312.154572,247.457565 310.855133,248.748993 
	C287.777191,271.684998 264.770813,294.693146 241.830627,317.766907 
	C240.529922,319.075195 239.931656,321.081818 239.006454,322.763428 
z"/>
<path fill="#00698E" opacity="1.000000" stroke="none" 
	d="
M239.293900,322.976746 
	C239.931656,321.081818 240.529922,319.075195 241.830627,317.766907 
	C264.770813,294.693146 287.777191,271.684998 310.855133,248.748993 
	C312.154572,247.457565 314.194946,246.911636 316.243347,246.010117 
	C316.777374,254.695679 316.958466,263.389832 316.703491,272.612885 
	C314.733948,274.372131 313.071991,275.473480 311.686737,276.852692 
	C296.998749,291.476837 282.372375,306.162781 267.685913,320.788452 
	C264.170135,324.289703 260.494843,327.630737 256.892883,331.045441 
	C251.122375,328.426971 245.351852,325.808533 239.293900,322.976746 
z"/>
<path fill="#028AB0" opacity="1.000000" stroke="none" 
	d="
M190.002106,182.093811 
	C197.719208,182.777924 205.436295,183.462036 213.553070,184.599060 
	C212.850510,186.652512 211.949066,188.448959 210.611603,189.820068 
	C204.469070,196.117249 198.103012,202.199356 192.058258,208.586761 
	C190.614532,210.112305 190.096664,212.514023 189.152954,214.512741 
	C176.734283,225.469635 164.315613,236.426529 151.377167,247.842026 
	C148.942108,242.259277 146.259415,236.108780 143.829834,229.421783 
	C144.623718,228.502136 145.232605,228.187317 145.695358,227.725922 
	C159.814880,213.647354 173.932770,199.567032 187.997406,185.433746 
	C188.886536,184.540253 189.343872,183.217072 190.002106,182.093811 
z"/>
<path fill="#0286AC" opacity="1.000000" stroke="none" 
	d="
M189.475006,214.364197 
	C190.096664,212.514023 190.614532,210.112305 192.058258,208.586761 
	C198.103012,202.199356 204.469070,196.117249 210.611603,189.820068 
	C211.949066,188.448959 212.850510,186.652512 213.976440,184.715240 
	C222.543457,183.565125 226.108643,178.682388 223.811478,170.469971 
	C225.606216,168.783997 227.724579,167.724487 229.286697,166.122559 
	C234.942673,160.322479 240.411880,154.340225 246.027252,148.071747 
	C257.048187,151.991257 266.914337,150.556000 275.825348,141.773224 
	C277.140381,142.916306 278.469421,144.071579 279.769714,145.825989 
	C270.291748,155.985641 260.799408,165.504333 251.439514,175.151489 
	C250.025681,176.608719 249.228790,178.664551 248.146530,180.443481 
	C234.590515,187.405975 220.864395,194.062546 207.552765,201.464508 
	C201.226730,204.982132 195.690872,209.920761 189.475006,214.364197 
z"/>
<path fill="#016489" opacity="1.000000" stroke="none" 
	d="
M257.143921,331.308289 
	C260.494843,327.630737 264.170135,324.289703 267.685913,320.788452 
	C282.372375,306.162781 296.998749,291.476837 311.686737,276.852692 
	C313.071991,275.473480 314.733948,274.372131 316.598877,273.071533 
	C316.067017,283.424255 315.203644,293.847137 313.812012,304.698792 
	C311.503601,306.271118 309.466187,307.152039 307.985748,308.601715 
	C299.485931,316.924835 291.081879,325.347107 282.739777,333.828613 
	C281.264587,335.328491 280.234741,337.266449 278.999268,339.002136 
	C271.797821,336.525146 264.596405,334.048157 257.143921,331.308289 
z"/>
<path fill="#017399" opacity="1.000000" stroke="none" 
	d="
M313.276062,219.472229 
	C311.143158,221.456726 308.813477,222.806290 306.943298,224.627655 
	C296.352234,234.942444 285.871216,245.370178 274.787476,255.715179 
	C270.912598,248.924637 264.862549,246.341202 258.000183,244.991684 
	C258.990387,243.504242 259.768219,241.805984 261.003326,240.561661 
	C274.821136,226.641281 288.689056,212.770386 302.613892,198.957123 
	C303.848175,197.732697 305.576904,197.006729 307.421997,196.026001 
	C309.609131,203.686859 311.450287,211.371002 313.276062,219.472229 
z"/>
<path fill="#036B90" opacity="1.000000" stroke="none" 
	d="
M373.057678,214.569778 
	C371.021271,216.120255 368.749817,216.900085 367.194427,218.415054 
	C358.377197,227.003159 349.748596,235.784653 341.007996,244.452118 
	C339.731140,245.718307 338.198456,246.726532 336.457214,247.928787 
	C334.985413,237.994217 333.840576,227.985016 333.041260,217.391907 
	C342.326996,207.970215 351.267151,199.132401 360.207306,190.294586 
	C368.440796,196.115234 373.596283,203.607101 373.057678,214.569778 
z"/>
<path fill="#025D82" opacity="1.000000" stroke="none" 
	d="
M270.040649,356.869629 
	C278.666107,359.043640 287.291595,361.217651 297.009003,363.666870 
	C290.504883,371.319580 284.948029,379.032471 278.208130,385.515442 
	C267.816071,395.511414 253.369644,398.151917 240.270462,388.333405 
	C241.282822,387.466278 242.281021,387.129028 242.953186,386.462860 
	C251.392014,378.099884 259.829102,369.733673 268.129974,361.234833 
	C269.168243,360.171783 269.422913,358.343384 270.040649,356.869629 
z"/>
<path fill="#016287" opacity="1.000000" stroke="none" 
	d="
M269.794006,356.607178 
	C269.422913,358.343384 269.168243,360.171783 268.129974,361.234833 
	C259.829102,369.733673 251.392014,378.099884 242.953186,386.462860 
	C242.281021,387.129028 241.282822,387.466278 240.082153,388.033325 
	C234.205826,382.288696 228.683487,376.467133 223.258743,370.028625 
	C228.572830,364.104919 233.854980,358.860413 238.971527,353.459015 
	C240.856964,351.468597 242.351776,349.108185 244.024750,346.916534 
	C252.532288,350.059296 261.039825,353.202026 269.794006,356.607178 
z"/>
<path fill="#0290B5" opacity="1.000000" stroke="none" 
	d="
M189.546631,181.997864 
	C189.343872,183.217072 188.886536,184.540253 187.997406,185.433746 
	C173.932770,199.567032 159.814880,213.647354 145.695358,227.725922 
	C145.232605,228.187317 144.623718,228.502136 143.745514,229.042847 
	C142.727127,222.158371 140.671097,214.918640 141.649292,208.115173 
	C143.736343,193.599808 154.838837,187.185471 167.825638,184.161514 
	C174.715942,182.557098 181.990219,182.601730 189.546631,181.997864 
z"/>
<path fill="#017398" opacity="1.000000" stroke="none" 
	d="
M247.998474,282.263153 
	C246.881821,284.033142 246.018631,286.043365 244.606415,287.533173 
	C236.848862,295.716949 228.956924,303.773346 220.940369,312.203003 
	C214.916260,308.677856 209.062943,304.823120 203.006165,300.716919 
	C204.226547,298.452301 205.413239,296.207489 207.114899,294.465759 
	C214.883179,286.514496 222.727341,278.633575 230.711792,270.900360 
	C232.416092,269.249695 234.818680,268.320007 237.375610,267.400574 
	C238.948700,274.179962 242.419937,278.957855 247.998474,282.263153 
z"/>
<path fill="#0383A8" opacity="1.000000" stroke="none" 
	d="
M234.682495,208.355774 
	C233.883865,210.436859 233.188370,213.015869 231.561478,214.689514 
	C221.246567,225.300919 210.704666,235.691284 200.279099,246.195679 
	C191.236633,255.306519 182.248993,264.471802 173.064972,273.916321 
	C169.435226,271.960175 165.977585,269.700714 162.019653,267.114349 
	C181.028732,242.443787 206.397720,223.875839 234.682495,208.355774 
z"/>
<path fill="#037296" opacity="1.000000" stroke="none" 
	d="
M359.978394,190.060989 
	C351.267151,199.132401 342.326996,207.970215 333.062653,216.956787 
	C329.846710,205.424011 326.954895,193.742493 323.983307,181.738632 
	C336.389862,182.491669 348.723602,183.144409 359.978394,190.060989 
z"/>
<path fill="#036185" opacity="1.000000" stroke="none" 
	d="
M279.285980,339.234680 
	C280.234741,337.266449 281.264587,335.328491 282.739777,333.828613 
	C291.081879,325.347107 299.485931,316.924835 307.985748,308.601715 
	C309.466187,307.152039 311.503601,306.271118 313.629059,305.063843 
	C312.015656,314.192047 310.202484,323.418365 308.037872,332.561462 
	C306.930084,337.240845 306.168091,341.667480 309.272583,346.740814 
	C299.372620,344.316254 289.472656,341.891724 279.285980,339.234680 
z"/>
<path fill="#036B90" opacity="1.000000" stroke="none" 
	d="
M243.805435,346.645081 
	C242.351776,349.108185 240.856964,351.468597 238.971527,353.459015 
	C233.854980,358.860413 228.572830,364.104919 223.183853,369.693695 
	C218.558807,360.962494 214.106232,351.949219 209.540787,342.571167 
	C212.218689,339.574432 215.009430,336.942535 217.969238,333.998657 
	C226.620926,337.915649 235.103531,342.144623 243.805435,346.645081 
z"/>
<path fill="#0383A8" opacity="1.000000" stroke="none" 
	d="
M248.511871,180.342865 
	C249.228790,178.664551 250.025681,176.608719 251.439514,175.151489 
	C260.799408,165.504333 270.291748,155.985641 279.911072,146.125580 
	C286.894867,151.377975 291.247375,158.725845 295.657776,166.182526 
	C279.120728,169.086945 263.829163,174.096313 248.511871,180.342865 
z"/>
<path fill="#027BA1" opacity="1.000000" stroke="none" 
	d="
M181.015976,308.194702 
	C174.630173,314.942932 168.062515,321.431335 161.144867,327.990784 
	C158.207764,322.519836 155.185959,317.353851 149.131424,314.034912 
	C149.564636,312.194153 149.850494,310.769226 150.704819,309.908661 
	C155.697815,304.879120 160.823914,299.981720 165.905090,295.039734 
	C170.881424,299.338104 175.857773,303.636475 181.015976,308.194702 
z"/>
<path fill="#0581A6" opacity="1.000000" stroke="none" 
	d="
M165.733185,294.754761 
	C160.823914,299.981720 155.697815,304.879120 150.704819,309.908661 
	C149.850494,310.769226 149.564636,312.194153 148.990631,313.725098 
	C146.519318,313.132324 144.073517,312.172852 141.294479,311.082642 
	C142.303146,299.872894 146.854767,290.028137 152.496689,280.923859 
	C156.994415,285.587280 161.277847,290.028503 165.733185,294.754761 
z"/>
<path fill="#0D597C" opacity="1.000000" stroke="none" 
	d="
M371.340515,335.205383 
	C373.435516,333.227295 375.284302,330.827332 377.561890,330.308075 
	C378.859161,330.012329 381.618561,332.493164 382.305664,334.270294 
	C382.890228,335.782227 382.009125,338.577606 380.798279,339.928375 
	C377.569275,343.530609 372.902771,341.281952 371.340515,335.205383 
z"/>
<path fill="#0B90B4" opacity="1.000000" stroke="none" 
	d="
M252.982040,129.168823 
	C250.724472,124.030945 251.740448,120.281265 255.672592,119.914330 
	C257.699524,119.725189 260.826294,120.871750 261.767395,122.432816 
	C262.710449,123.997177 262.312469,127.386925 261.143829,128.980179 
	C259.159515,131.685394 256.025482,131.646042 252.982040,129.168823 
z"/>
<path fill="#0581A6" opacity="1.000000" stroke="none" 
	d="
M141.212769,339.442566 
	C138.360413,339.821228 135.545441,340.547333 133.283005,339.734802 
	C132.150620,339.328156 131.187012,335.898773 131.620193,334.215607 
	C132.529633,330.681885 135.426300,329.068665 139.000549,330.590057 
	C143.047134,332.312561 143.662445,335.426239 141.212769,339.442566 
z"/>
<path fill="#FCFDFE" opacity="1.000000" stroke="none" 
	d="
M248.366119,282.345459 
	C242.419937,278.957855 238.948700,274.179962 237.716965,267.372742 
	C237.934875,253.164444 243.152054,247.364899 257.608765,245.083710 
	C264.862549,246.341202 270.912598,248.924637 274.478638,255.877411 
	C279.813751,272.081146 270.540192,285.201721 254.905121,284.008240 
	C252.819931,283.849060 250.789536,282.972229 248.366119,282.345459 
z"/>
</svg>