<?xml version="1.0" encoding="UTF-8"?>
<svg xmlns="http://www.w3.org/2000/svg" xmlns:xlink="http://www.w3.org/1999/xlink" width="75px" height="75px" viewBox="0 0 75 75" version="1.1">
<g id="surface1">
<path style=" stroke:none;fill-rule:nonzero;fill:rgb(0%,58.431375%,73.333335%);fill-opacity:1;" d="M 44.382812 0.148438 C 46.488281 0.148438 48.589844 0.148438 50.75 0.195312 C 50.613281 0.488281 50.4375 0.753906 50.21875 0.972656 C 45.980469 5.21875 41.730469 9.457031 37.503906 13.714844 C 37.238281 13.980469 37.128906 14.398438 36.902344 14.769531 C 35.257812 15.214844 34.386719 16.316406 33.960938 17.878906 C 33.785156 17.960938 33.636719 18.011719 33.539062 18.109375 C 31.835938 19.800781 30.132812 21.496094 28.445312 23.207031 C 28.289062 23.367188 28.238281 23.625 28.078125 23.847656 C 26.757812 23.964844 25.472656 23.9375 24.25 24.203125 C 21.300781 24.835938 18.90625 26.3125 18.132812 29.433594 C 17.824219 30.691406 18.035156 32.074219 17.957031 33.402344 C 17.613281 33.609375 17.285156 33.777344 17.039062 34.023438 C 11.671875 39.375 6.316406 44.738281 0.953125 50.089844 C 0.71875 50.320312 0.417969 50.488281 0.148438 50.683594 C 0.148438 48.628906 0.148438 46.574219 0.195312 44.445312 C 0.542969 44.15625 0.878906 43.988281 1.132812 43.734375 C 2.929688 41.957031 4.710938 40.164062 6.496094 38.375 C 10.683594 34.179688 14.867188 29.980469 19.0625 25.789062 C 23.648438 21.203125 28.246094 16.625 32.835938 12.042969 C 36.117188 8.761719 39.40625 5.488281 42.671875 2.191406 C 43.296875 1.5625 43.816406 0.832031 44.382812 0.148438 "/>
<path style=" stroke:none;fill-rule:nonzero;fill:rgb(0%,61.176473%,76.47059%);fill-opacity:1;" d="M 44.316406 0.148438 C 43.816406 0.832031 43.296875 1.5625 42.671875 2.191406 C 39.40625 5.488281 36.117188 8.761719 32.835938 12.042969 C 28.246094 16.625 23.648438 21.203125 19.0625 25.789062 C 14.867188 29.980469 10.683594 34.179688 6.496094 38.375 C 4.710938 40.164062 2.929688 41.957031 1.132812 43.734375 C 0.878906 43.988281 0.542969 44.15625 0.195312 44.375 C 0.148438 42.296875 0.144531 40.222656 0.195312 38.144531 C 0.453125 37.902344 0.683594 37.761719 0.871094 37.578125 C 13.117188 25.339844 25.355469 13.09375 37.59375 0.847656 C 37.792969 0.648438 37.921875 0.382812 38.085938 0.148438 Z M 44.316406 0.148438 "/>
<path style=" stroke:none;fill-rule:nonzero;fill:rgb(0%,20%,34.117648%);fill-opacity:1;" d="M 75.148438 51.125 C 75.148438 53.910156 75.148438 56.695312 75.089844 59.558594 C 74.976562 59.753906 74.882812 59.871094 74.859375 60 C 74.242188 63.273438 72.820312 66.1875 70.664062 68.6875 C 67.867188 71.925781 64.324219 73.984375 60.109375 74.851562 C 59.933594 74.886719 59.78125 75.046875 59.617188 75.148438 C 56.832031 75.148438 54.046875 75.148438 51.203125 75.097656 C 51.488281 74.648438 51.816406 74.234375 52.183594 73.851562 C 53.179688 72.824219 54.191406 71.8125 55.199219 70.796875 C 56.101562 69.886719 57.015625 68.984375 57.921875 68.078125 C 58.96875 67.03125 60.011719 65.984375 61.054688 64.9375 C 61.964844 64.03125 62.871094 63.125 63.777344 62.21875 C 64.824219 61.175781 65.867188 60.128906 66.914062 59.082031 C 67.820312 58.175781 68.730469 57.269531 69.636719 56.363281 C 70.683594 55.316406 71.710938 54.253906 72.777344 53.230469 C 73.539062 52.5 74.355469 51.824219 75.148438 51.121094 "/>
<path style=" stroke:none;fill-rule:nonzero;fill:rgb(0%,70.588237%,85.882354%);fill-opacity:1;" d="M 15.671875 0.148438 C 18.117188 0.148438 20.5625 0.148438 23.074219 0.199219 C 22.988281 0.492188 22.875 0.769531 22.679688 0.96875 C 15.441406 8.21875 8.195312 15.464844 0.941406 22.699219 C 0.734375 22.90625 0.414062 23 0.148438 23.144531 C 0.148438 20.699219 0.148438 18.253906 0.199219 15.789062 C 0.308594 15.691406 0.414062 15.621094 0.421875 15.542969 C 0.625 13.515625 1.414062 11.683594 2.363281 9.921875 C 3.804688 7.246094 5.773438 5.011719 8.316406 3.320312 C 10.5 1.871094 12.855469 0.839844 15.464844 0.425781 C 15.546875 0.410156 15.605469 0.242188 15.671875 0.144531 "/>
<path style=" stroke:none;fill-rule:nonzero;fill:rgb(0%,64.313728%,79.607844%);fill-opacity:1;" d="M 38.015625 0.148438 C 37.921875 0.382812 37.792969 0.648438 37.59375 0.847656 C 25.355469 13.09375 13.117188 25.339844 0.871094 37.578125 C 0.683594 37.761719 0.453125 37.902344 0.195312 38.074219 C 0.144531 36.242188 0.148438 34.410156 0.199219 32.578125 C 0.527344 32.316406 0.847656 32.171875 1.082031 31.9375 C 11.382812 21.652344 21.671875 11.359375 31.957031 1.058594 C 32.203125 0.8125 32.335938 0.453125 32.519531 0.148438 Z M 38.015625 0.148438 "/>
<path style=" stroke:none;fill-rule:nonzero;fill:rgb(0%,24.705882%,38.82353%);fill-opacity:1;" d="M 46.289062 75.148438 C 44.480469 75.148438 42.667969 75.148438 40.800781 75.097656 C 40.90625 74.839844 41.046875 74.609375 41.230469 74.421875 C 52.230469 63.417969 63.234375 52.414062 74.246094 41.417969 C 74.488281 41.175781 74.84375 41.050781 75.148438 40.867188 C 75.148438 42.628906 75.148438 44.390625 75.097656 46.230469 C 74.839844 46.472656 74.609375 46.613281 74.421875 46.796875 C 65.203125 56.007812 55.992188 65.222656 46.78125 74.445312 C 46.582031 74.644531 46.453125 74.910156 46.289062 75.148438 "/>
<path style=" stroke:none;fill-rule:nonzero;fill:rgb(0%,27.450982%,41.568628%);fill-opacity:1;" d="M 75.148438 40.800781 C 74.84375 41.050781 74.488281 41.175781 74.246094 41.417969 C 63.234375 52.414062 52.230469 63.417969 41.230469 74.421875 C 41.046875 74.609375 40.90625 74.839844 40.734375 75.097656 C 39.195312 75.148438 37.652344 75.148438 36.113281 75.097656 C 36.21875 74.839844 36.359375 74.609375 36.546875 74.421875 C 49.175781 61.785156 61.808594 49.15625 74.445312 36.527344 C 74.644531 36.328125 74.910156 36.199219 75.144531 36.035156 Z M 75.148438 40.800781 "/>
<path style=" stroke:none;fill-rule:nonzero;fill:rgb(0%,29.411766%,43.529412%);fill-opacity:1;" d="M 75.148438 35.964844 C 74.910156 36.199219 74.644531 36.328125 74.445312 36.527344 C 61.808594 49.15625 49.175781 61.785156 36.546875 74.421875 C 36.359375 74.609375 36.21875 74.839844 36.046875 75.097656 C 35.007812 75.148438 33.976562 75.148438 32.882812 75.09375 C 33.019531 74.75 33.183594 74.421875 33.429688 74.171875 C 40.296875 67.292969 47.171875 60.421875 54.042969 53.546875 C 54.261719 53.324219 54.449219 53.070312 54.71875 52.828125 C 55.304688 52.761719 55.851562 52.769531 56.351562 52.621094 C 57.945312 52.148438 59.5625 50.28125 58.613281 47.609375 C 58.925781 47.386719 59.214844 47.199219 59.449219 46.964844 C 64.367188 42.058594 69.273438 37.140625 74.195312 32.242188 C 74.453125 31.984375 74.828125 31.839844 75.148438 31.640625 Z M 75.148438 35.964844 "/>
<path style=" stroke:none;fill-rule:nonzero;fill:rgb(0%,21.960784%,36.470589%);fill-opacity:1;" d="M 46.359375 75.148438 C 46.453125 74.910156 46.582031 74.644531 46.78125 74.445312 C 55.992188 65.222656 65.203125 56.007812 74.421875 46.796875 C 74.609375 46.613281 74.839844 46.472656 75.097656 46.300781 C 75.144531 47.855469 75.144531 49.421875 75.144531 51.054688 C 74.355469 51.824219 73.539062 52.5 72.777344 53.230469 C 71.710938 54.253906 70.679688 55.316406 69.636719 56.363281 C 68.730469 57.269531 67.820312 58.175781 66.914062 59.082031 C 65.867188 60.128906 64.824219 61.175781 63.777344 62.21875 C 62.871094 63.125 61.960938 64.03125 61.054688 64.9375 C 60.011719 65.984375 58.964844 67.03125 57.921875 68.078125 C 57.015625 68.984375 56.101562 69.886719 55.199219 70.796875 C 54.191406 71.8125 53.179688 72.824219 52.183594 73.851562 C 51.816406 74.230469 51.488281 74.648438 51.132812 75.097656 C 49.558594 75.148438 47.992188 75.148438 46.359375 75.148438 "/>
<path style=" stroke:none;fill-rule:nonzero;fill:rgb(0%,37.64706%,52.156866%);fill-opacity:1;" d="M 20.070312 75.148438 C 18.648438 75.148438 17.230469 75.148438 15.75 75.089844 C 15 74.816406 14.308594 74.601562 13.632812 74.34375 C 13.777344 74.121094 13.890625 73.933594 14.042969 73.78125 C 19.488281 68.324219 24.941406 62.875 30.398438 57.429688 C 30.597656 57.230469 30.875 57.113281 31.15625 56.988281 C 32.203125 58.285156 33.429688 59.292969 34.84375 60.085938 C 34.621094 60.34375 34.429688 60.566406 34.222656 60.773438 C 29.703125 65.292969 25.179688 69.8125 20.664062 74.339844 C 20.429688 74.574219 20.265625 74.875 20.066406 75.144531 "/>
<path style=" stroke:none;fill-rule:nonzero;fill:rgb(0%,66.666669%,81.960785%);fill-opacity:1;" d="M 32.449219 0.148438 C 32.335938 0.453125 32.203125 0.8125 31.957031 1.058594 C 21.671875 11.359375 11.382812 21.652344 1.082031 31.9375 C 0.847656 32.171875 0.527344 32.316406 0.199219 32.511719 C 0.148438 31.394531 0.148438 30.265625 0.195312 29.0625 C 0.765625 28.515625 1.296875 28.058594 1.796875 27.574219 C 3.140625 26.277344 4.480469 24.980469 5.796875 23.660156 C 7.183594 22.273438 8.53125 20.847656 9.921875 19.457031 C 11.257812 18.125 12.636719 16.832031 13.972656 15.492188 C 15.34375 14.125 16.667969 12.707031 18.039062 11.339844 C 19.789062 9.59375 21.570312 7.882812 23.324219 6.144531 C 24.875 4.613281 26.421875 3.074219 27.945312 1.515625 C 28.34375 1.105469 28.652344 0.605469 29.003906 0.148438 Z M 32.449219 0.148438 "/>
<path style=" stroke:none;fill-rule:nonzero;fill:rgb(0%,55.29412%,70.588237%);fill-opacity:1;" d="M 0.148438 50.753906 C 0.417969 50.488281 0.71875 50.320312 0.953125 50.089844 C 6.316406 44.738281 11.671875 39.375 17.039062 34.023438 C 17.285156 33.777344 17.613281 33.609375 17.984375 33.449219 C 18.5 34.65625 18.9375 35.816406 19.34375 37.019531 C 18.976562 37.382812 18.632812 37.691406 18.304688 38.019531 C 12.523438 43.800781 6.742188 49.585938 0.953125 55.359375 C 0.71875 55.59375 0.417969 55.761719 0.148438 55.957031 Z M 0.148438 50.753906 "/>
<path style=" stroke:none;fill-rule:nonzero;fill:rgb(0%,53.333336%,68.235296%);fill-opacity:1;" d="M 0.148438 56.027344 C 0.417969 55.761719 0.71875 55.59375 0.953125 55.359375 C 6.742188 49.585938 12.523438 43.800781 18.304688 38.019531 C 18.644531 37.679688 19.007812 37.359375 19.382812 37.058594 C 19.867188 37.5 20.277344 37.949219 20.597656 38.292969 C 19.820312 39.945312 19.015625 41.652344 18.160156 43.367188 C 17.238281 44.140625 16.347656 44.882812 15.511719 45.675781 C 14.511719 46.625 13.554688 47.621094 12.585938 48.597656 C 11.578125 49.609375 10.574219 50.625 9.566406 51.636719 C 8.644531 52.5625 7.714844 53.480469 6.792969 54.40625 C 5.765625 55.433594 4.746094 56.46875 3.710938 57.488281 C 2.671875 58.503906 1.617188 59.5 0.523438 60.472656 C 0.367188 60.164062 0.257812 59.890625 0.148438 59.617188 Z M 0.148438 56.027344 "/>
<path style=" stroke:none;fill-rule:nonzero;fill:rgb(0%,31.764707%,45.882353%);fill-opacity:1;" d="M 75.148438 31.570312 C 74.828125 31.839844 74.453125 31.984375 74.195312 32.242188 C 69.273438 37.140625 64.367188 42.058594 59.449219 46.964844 C 59.214844 47.199219 58.925781 47.386719 58.574219 47.578125 C 58.058594 46.636719 57.285156 46.105469 56.40625 45.652344 C 56.578125 45.394531 56.722656 45.164062 56.90625 44.980469 C 62.75 39.128906 68.59375 33.285156 74.445312 27.445312 C 74.644531 27.246094 74.910156 27.117188 75.148438 26.953125 Z M 75.148438 31.570312 "/>
<path style=" stroke:none;fill-rule:nonzero;fill:rgb(0.392157%,36.078432%,50.588238%);fill-opacity:1;" d="M 75.148438 18.3125 C 75.148438 19.191406 75.148438 20.074219 75.097656 21.035156 C 74.695312 21.371094 74.308594 21.589844 74 21.890625 C 73.0625 22.808594 72.164062 23.769531 71.234375 24.695312 C 67.515625 28.402344 63.785156 32.101562 60.066406 35.808594 C 56.449219 39.417969 52.84375 43.035156 49.222656 46.640625 C 49.007812 46.855469 48.714844 46.992188 48.457031 47.105469 C 48.714844 45.277344 48.972656 43.511719 49.285156 41.746094 C 49.554688 41.609375 49.78125 41.480469 49.992188 41.335938 C 50.28125 41.140625 50.5625 40.925781 50.878906 40.761719 C 52.015625 41.710938 52.640625 41.695312 53.507812 40.515625 C 54.46875 39.207031 55.304688 37.8125 56.25 36.457031 C 56.605469 36.269531 56.949219 36.125 57.195312 35.882812 C 62.863281 30.230469 68.523438 24.5625 74.195312 18.910156 C 74.453125 18.652344 74.828125 18.507812 75.144531 18.3125 "/>
<path style=" stroke:none;fill-rule:nonzero;fill:rgb(0%,34.901962%,49.411765%);fill-opacity:1;" d="M 48.460938 47.167969 C 48.714844 46.992188 49.007812 46.855469 49.222656 46.640625 C 52.84375 43.035156 56.449219 39.417969 60.066406 35.808594 C 63.785156 32.101562 67.515625 28.402344 71.234375 24.695312 C 72.164062 23.769531 73.0625 22.808594 74 21.890625 C 74.308594 21.589844 74.695312 21.371094 75.097656 21.105469 C 75.148438 21.925781 75.148438 22.761719 75.097656 23.671875 C 73.972656 24.769531 72.882812 25.769531 71.832031 26.8125 C 69.617188 29.003906 67.421875 31.21875 65.21875 33.421875 C 63.53125 35.109375 61.835938 36.789062 60.148438 38.476562 C 58.34375 40.285156 56.542969 42.101562 54.738281 43.910156 C 53.03125 45.613281 51.308594 47.300781 49.617188 49.015625 C 49.058594 49.582031 48.570312 50.210938 47.988281 50.824219 C 47.695312 50.839844 47.460938 50.839844 47.3125 50.839844 C 47.539062 50.234375 47.789062 49.648438 47.976562 49.042969 C 48.167969 48.429688 48.300781 47.792969 48.460938 47.167969 "/>
<path style=" stroke:none;fill-rule:nonzero;fill:rgb(0%,33.725491%,47.843137%);fill-opacity:1;" d="M 48.046875 50.8125 C 48.570312 50.210938 49.058594 49.582031 49.617188 49.015625 C 51.308594 47.300781 53.03125 45.613281 54.738281 43.910156 C 56.542969 42.105469 58.34375 40.285156 60.148438 38.476562 C 61.835938 36.789062 63.53125 35.109375 65.21875 33.421875 C 67.421875 31.21875 69.617188 29.003906 71.832031 26.8125 C 72.882812 25.769531 73.972656 24.769531 75.097656 23.742188 C 75.148438 24.757812 75.148438 25.789062 75.148438 26.882812 C 74.910156 27.117188 74.644531 27.246094 74.445312 27.445312 C 68.59375 33.285156 62.746094 39.128906 56.90625 44.980469 C 56.722656 45.164062 56.578125 45.394531 56.34375 45.65625 C 54.933594 45.417969 53.753906 45.609375 52.675781 46.582031 C 51.546875 47.597656 51.59375 48.898438 51.554688 50.398438 Z M 48.046875 50.8125 "/>
<path style=" stroke:none;fill-rule:nonzero;fill:rgb(0%,0%,0%);fill-opacity:1;" d="M 59.6875 75.148438 C 59.78125 75.046875 59.933594 74.886719 60.109375 74.851562 C 64.324219 73.984375 67.867188 71.925781 70.664062 68.6875 C 72.820312 66.1875 74.242188 63.273438 74.859375 60 C 74.882812 59.871094 74.976562 59.753906 75.089844 59.625 C 75.148438 64.785156 75.148438 69.949219 75.148438 75.148438 Z M 59.617188 0.148438 L 75.148438 0.148438 C 75.148438 5.277344 75.148438 10.40625 75.09375 15.621094 C 74.96875 15.546875 74.898438 15.390625 74.835938 15.175781 C 74.511719 14.082031 74.179688 13.042969 73.839844 11.953125 C 73.097656 10.5625 72.367188 9.230469 71.613281 7.851562 C 70.628906 6.761719 69.667969 5.714844 68.683594 4.628906 C 68.4375 4.40625 68.226562 4.207031 67.984375 4.054688 C 67.058594 3.46875 66.125 2.902344 65.164062 2.285156 C 63.933594 1.78125 62.730469 1.320312 61.496094 0.816406 C 60.890625 0.652344 60.3125 0.542969 59.742188 0.40625 C 59.683594 0.394531 59.660156 0.238281 59.617188 0.144531 M 0.148438 59.6875 C 0.257812 59.890625 0.367188 60.164062 0.527344 60.53125 C 0.96875 61.757812 1.355469 62.890625 1.75 64.074219 C 2.109375 64.773438 2.457031 65.417969 2.816406 66.113281 C 3.296875 66.820312 3.769531 67.476562 4.261719 68.175781 C 4.902344 68.875 5.523438 69.527344 6.167969 70.226562 C 7.132812 70.960938 8.078125 71.648438 9.046875 72.378906 C 10.003906 72.890625 10.917969 73.398438 11.867188 73.828125 C 12.421875 74.078125 13.035156 74.207031 13.621094 74.390625 C 14.308594 74.601562 15 74.816406 15.679688 75.089844 C 10.507812 75.148438 5.34375 75.148438 0.148438 75.148438 Z M 15.605469 0.148438 C 15.605469 0.242188 15.546875 0.410156 15.464844 0.425781 C 12.855469 0.839844 10.5 1.871094 8.316406 3.320312 C 5.773438 5.011719 3.804688 7.246094 2.363281 9.921875 C 1.414062 11.683594 0.625 13.515625 0.421875 15.542969 C 0.414062 15.621094 0.308594 15.691406 0.199219 15.71875 C 0.148438 10.507812 0.148438 5.34375 0.148438 0.148438 Z M 15.605469 0.148438 "/>
<path style=" stroke:none;fill-rule:nonzero;fill:rgb(0%,55.29412%,70.19608%);fill-opacity:1;" d="M 36.945312 14.746094 C 37.128906 14.398438 37.238281 13.980469 37.503906 13.714844 C 41.730469 9.457031 45.980469 5.21875 50.21875 0.972656 C 50.4375 0.753906 50.613281 0.488281 50.820312 0.195312 C 52.363281 0.144531 53.90625 0.148438 55.445312 0.199219 C 55.324219 0.527344 55.179688 0.839844 54.949219 1.070312 C 50.269531 5.761719 45.585938 10.445312 40.898438 15.128906 C 40.691406 15.332031 40.453125 15.503906 40.1875 15.675781 C 39.222656 14.839844 38.136719 14.617188 36.945312 14.746094 "/>
<path style=" stroke:none;fill-rule:nonzero;fill:rgb(0%,34.509805%,48.627451%);fill-opacity:1;" d="M 20.136719 75.148438 C 20.265625 74.875 20.429688 74.574219 20.664062 74.339844 C 25.179688 69.8125 29.703125 65.292969 34.222656 60.773438 C 34.429688 60.566406 34.621094 60.34375 34.898438 60.089844 C 36.171875 60.53125 37.402344 60.722656 38.726562 60.601562 C 38.640625 60.902344 38.574219 61.234375 38.378906 61.433594 C 34.125 65.710938 29.851562 69.972656 25.59375 74.25 C 25.355469 74.492188 25.226562 74.84375 25.050781 75.148438 Z M 20.136719 75.148438 "/>
<path style=" stroke:none;fill-rule:nonzero;fill:rgb(0%,52.156866%,67.058825%);fill-opacity:1;" d="M 59.554688 0.148438 C 59.660156 0.238281 59.683594 0.394531 59.742188 0.40625 C 60.3125 0.542969 60.890625 0.652344 61.488281 0.867188 C 61.347656 1.171875 61.210938 1.40625 61.023438 1.589844 C 55.28125 7.34375 49.535156 13.089844 43.78125 18.832031 C 43.582031 19.03125 43.316406 19.164062 43.035156 19.3125 C 42.574219 18.96875 42.136719 18.667969 41.753906 18.3125 C 41.546875 18.121094 41.433594 17.832031 41.328125 17.578125 C 41.574219 17.425781 41.792969 17.308594 41.960938 17.140625 C 47.363281 11.746094 52.761719 6.351562 58.148438 0.941406 C 58.355469 0.734375 58.449219 0.414062 58.59375 0.148438 Z M 59.554688 0.148438 "/>
<path style=" stroke:none;fill-rule:nonzero;fill:rgb(0%,37.64706%,52.156866%);fill-opacity:1;" d="M 74.828125 15.234375 C 74.898438 15.390625 74.96875 15.546875 75.09375 15.6875 C 75.148438 16.507812 75.148438 17.339844 75.148438 18.242188 C 74.828125 18.507812 74.453125 18.652344 74.195312 18.910156 C 68.523438 24.5625 62.863281 30.230469 57.195312 35.882812 C 56.949219 36.125 56.605469 36.269531 56.265625 36.402344 C 56.628906 34.9375 57.050781 33.488281 57.523438 32.050781 C 57.851562 31.859375 58.15625 31.703125 58.386719 31.46875 C 63.605469 26.265625 68.8125 21.050781 74.03125 15.84375 C 74.265625 15.609375 74.5625 15.4375 74.828125 15.234375 "/>
<path style=" stroke:none;fill-rule:nonzero;fill:rgb(0%,30.588236%,44.705883%);fill-opacity:1;" d="M 54.65625 52.832031 C 54.453125 53.070312 54.261719 53.324219 54.039062 53.546875 C 47.171875 60.421875 40.296875 67.292969 33.429688 74.171875 C 33.183594 74.421875 33.019531 74.75 32.8125 75.09375 C 32.027344 75.148438 31.242188 75.148438 30.394531 75.09375 C 30.53125 74.75 30.695312 74.417969 30.945312 74.171875 C 37.609375 67.492188 44.285156 60.820312 50.949219 54.140625 C 51.207031 53.878906 51.359375 53.511719 51.613281 53.171875 C 52.648438 52.933594 53.566406 52.089844 54.65625 52.832031 "/>
<path style=" stroke:none;fill-rule:nonzero;fill:rgb(0.392157%,32.941177%,47.450981%);fill-opacity:1;" d="M 25.117188 75.148438 C 25.226562 74.84375 25.355469 74.492188 25.59375 74.25 C 29.851562 69.972656 34.125 65.710938 38.378906 61.433594 C 38.574219 61.234375 38.640625 60.902344 38.777344 60.578125 C 41.460938 60.015625 43.246094 58.285156 44.765625 56.195312 C 45.324219 55.425781 45.878906 54.648438 45.375 53.632812 C 46.550781 53.632812 47.664062 53.632812 48.769531 53.679688 C 48.242188 54.300781 47.742188 54.886719 47.210938 55.445312 C 46.242188 56.457031 45.269531 57.46875 44.28125 58.457031 C 43.339844 59.394531 42.355469 60.285156 41.417969 61.226562 C 40.058594 62.597656 38.738281 64.007812 37.371094 65.375 C 36.023438 66.722656 34.628906 68.023438 33.269531 69.363281 C 31.726562 70.886719 30.1875 72.421875 28.671875 73.976562 C 28.339844 74.316406 28.109375 74.753906 27.832031 75.148438 Z M 25.117188 75.148438 "/>
<path style=" stroke:none;fill-rule:nonzero;fill:rgb(0%,67.843139%,83.137256%);fill-opacity:1;" d="M 28.9375 0.148438 C 28.652344 0.605469 28.34375 1.105469 27.945312 1.515625 C 26.421875 3.074219 24.875 4.613281 23.324219 6.144531 C 21.570312 7.882812 19.789062 9.59375 18.039062 11.339844 C 16.667969 12.707031 15.34375 14.125 13.972656 15.492188 C 12.636719 16.832031 11.257812 18.125 9.921875 19.457031 C 8.53125 20.847656 7.183594 22.273438 5.796875 23.660156 C 4.480469 24.980469 3.140625 26.277344 1.796875 27.574219 C 1.296875 28.058594 0.765625 28.515625 0.195312 28.992188 C 0.144531 28.367188 0.144531 27.726562 0.199219 27.019531 C 0.492188 26.796875 0.769531 26.683594 0.96875 26.488281 C 9.488281 17.980469 18.003906 9.464844 26.507812 0.941406 C 26.714844 0.734375 26.808594 0.414062 26.953125 0.148438 Z M 28.9375 0.148438 "/>
<path style=" stroke:none;fill-rule:nonzero;fill:rgb(0%,31.764707%,45.882353%);fill-opacity:1;" d="M 27.902344 75.148438 C 28.109375 74.753906 28.339844 74.316406 28.671875 73.976562 C 30.1875 72.421875 31.726562 70.886719 33.269531 69.363281 C 34.628906 68.023438 36.023438 66.722656 37.371094 65.375 C 38.738281 64.007812 40.058594 62.597656 41.417969 61.226562 C 42.355469 60.285156 43.339844 59.394531 44.28125 58.457031 C 45.269531 57.46875 46.242188 56.457031 47.210938 55.445312 C 47.742188 54.886719 48.242188 54.300781 48.832031 53.667969 C 49.789062 53.46875 50.675781 53.332031 51.5625 53.195312 C 51.359375 53.511719 51.207031 53.878906 50.949219 54.140625 C 44.285156 60.820312 37.609375 67.492188 30.945312 74.171875 C 30.695312 74.417969 30.53125 74.75 30.324219 75.09375 C 29.539062 75.148438 28.753906 75.148438 27.902344 75.148438 "/>
<path style=" stroke:none;fill-rule:nonzero;fill:rgb(0%,53.725493%,68.627453%);fill-opacity:1;" d="M 58.523438 0.148438 C 58.449219 0.414062 58.355469 0.734375 58.148438 0.941406 C 52.761719 6.351562 47.363281 11.746094 41.960938 17.140625 C 41.792969 17.308594 41.574219 17.425781 41.296875 17.535156 C 40.886719 16.902344 40.558594 16.296875 40.230469 15.691406 C 40.453125 15.503906 40.691406 15.332031 40.898438 15.128906 C 45.585938 10.445312 50.269531 5.761719 54.949219 1.070312 C 55.179688 0.839844 55.328125 0.527344 55.515625 0.199219 C 56.496094 0.148438 57.476562 0.148438 58.523438 0.148438 "/>
<path style=" stroke:none;fill-rule:nonzero;fill:rgb(0%,69.411767%,84.705883%);fill-opacity:1;" d="M 0.148438 23.210938 C 0.414062 23 0.734375 22.90625 0.941406 22.699219 C 8.195312 15.464844 15.441406 8.21875 22.679688 0.96875 C 22.875 0.769531 22.988281 0.492188 23.140625 0.199219 C 23.78125 0.144531 24.421875 0.144531 25.125 0.199219 C 25.039062 0.492188 24.925781 0.773438 24.730469 0.96875 C 16.847656 8.863281 8.957031 16.753906 1.058594 24.632812 C 0.8125 24.878906 0.453125 25.011719 0.148438 25.195312 Z M 0.148438 23.210938 "/>
<path style=" stroke:none;fill-rule:nonzero;fill:rgb(0%,68.627453%,83.92157%);fill-opacity:1;" d="M 0.148438 25.261719 C 0.453125 25.011719 0.8125 24.878906 1.058594 24.632812 C 8.957031 16.753906 16.847656 8.863281 24.730469 0.96875 C 24.925781 0.773438 25.039062 0.492188 25.191406 0.199219 C 25.734375 0.148438 26.277344 0.148438 26.886719 0.148438 C 26.808594 0.414062 26.714844 0.734375 26.507812 0.941406 C 18.003906 9.464844 9.488281 17.980469 0.96875 26.488281 C 0.769531 26.683594 0.492188 26.796875 0.199219 26.949219 C 0.148438 26.414062 0.148438 25.871094 0.148438 25.261719 "/>
<path style=" stroke:none;fill-rule:nonzero;fill:rgb(98.823529%,99.215686%,99.607843%);fill-opacity:1;" d="M 40.1875 15.675781 C 40.558594 16.296875 40.886719 16.902344 41.246094 17.546875 C 41.433594 17.832031 41.546875 18.121094 41.753906 18.3125 C 42.136719 18.667969 42.574219 18.96875 43.054688 19.355469 C 43.882812 20.375 44.640625 21.332031 45.40625 22.339844 C 45.8125 23.136719 46.210938 23.886719 46.632812 24.679688 C 47.097656 23.972656 47.753906 23.824219 48.496094 23.890625 C 48.980469 23.933594 49.46875 23.960938 50.011719 24.007812 C 51.546875 24.234375 52.925781 24.71875 54.257812 25.484375 C 55.488281 26.28125 56.308594 27.367188 56.972656 28.648438 C 57.136719 29.820312 57.300781 30.9375 57.464844 32.050781 C 57.050781 33.484375 56.636719 34.917969 56.207031 36.402344 C 55.304688 37.8125 54.46875 39.207031 53.507812 40.515625 C 52.640625 41.695312 52.015625 41.710938 50.886719 40.703125 C 50.628906 39.976562 50.8125 39.453125 51.203125 38.917969 C 51.988281 37.84375 52.773438 36.757812 53.445312 35.609375 C 54.175781 34.355469 54.65625 32.988281 54.648438 31.429688 C 54.726562 29.824219 53.972656 28.726562 52.730469 27.839844 C 51.082031 26.828125 49.277344 26.730469 47.457031 26.621094 C 47.894531 28.378906 48.316406 30.089844 48.738281 31.867188 C 48.902344 33.394531 49.070312 34.863281 49.230469 36.398438 C 49.222656 38.226562 49.226562 39.988281 49.230469 41.75 C 48.972656 43.511719 48.714844 45.277344 48.457031 47.105469 C 48.300781 47.792969 48.167969 48.429688 47.976562 49.042969 C 47.789062 49.648438 47.539062 50.234375 47.3125 50.839844 C 47.460938 50.839844 47.695312 50.839844 47.988281 50.824219 C 49.175781 50.679688 50.363281 50.535156 51.554688 50.398438 C 51.59375 48.898438 51.546875 47.597656 52.675781 46.582031 C 53.753906 45.609375 54.933594 45.417969 56.335938 45.707031 C 57.285156 46.105469 58.058594 46.636719 58.519531 47.589844 C 59.5625 50.28125 57.945312 52.148438 56.351562 52.621094 C 55.851562 52.769531 55.304688 52.761719 54.71875 52.828125 C 53.566406 52.089844 52.648438 52.933594 51.613281 53.171875 C 50.675781 53.332031 49.789062 53.46875 48.839844 53.617188 C 47.664062 53.632812 46.550781 53.632812 45.375 53.632812 C 45.878906 54.648438 45.324219 55.425781 44.765625 56.195312 C 43.246094 58.285156 41.460938 60.015625 38.738281 60.546875 C 37.402344 60.722656 36.171875 60.53125 34.921875 60.046875 C 33.429688 59.292969 32.203125 58.285156 31.136719 56.9375 C 30.894531 56.605469 30.691406 56.359375 30.527344 56.089844 C 29.863281 55.007812 29.210938 53.917969 28.578125 52.816406 C 28.367188 52.144531 28.152344 51.53125 27.957031 50.910156 C 27.90625 50.738281 27.820312 50.496094 27.898438 50.378906 C 28.230469 49.847656 28.574219 49.28125 29.296875 49.230469 C 29.964844 49.183594 30.355469 49.613281 30.695312 50.179688 C 31.363281 51.554688 32.015625 52.875 32.679688 54.246094 C 33.5 55.148438 34.308594 56 35.144531 56.894531 C 37.113281 58.324219 39.230469 57.9375 40.753906 56.472656 C 41.742188 55.523438 42.554688 54.390625 43.507812 53.273438 C 42.082031 52.914062 40.820312 52.59375 39.519531 52.238281 C 38.238281 51.738281 36.992188 51.277344 35.714844 50.777344 C 34.4375 50.117188 33.195312 49.5 31.917969 48.84375 C 30.882812 48.1875 29.882812 47.566406 28.851562 46.910156 C 28.0625 46.3125 27.300781 45.746094 26.515625 45.144531 C 25.761719 44.476562 25.03125 43.847656 24.277344 43.175781 C 23.625 42.484375 22.996094 41.835938 22.339844 41.152344 C 21.511719 42.484375 20.84375 43.925781 20.699219 45.570312 C 21.105469 45.726562 21.460938 45.867188 21.839844 46.054688 C 22.730469 46.488281 23.175781 47.242188 23.558594 48.117188 C 24.316406 50.640625 22.144531 53.339844 19.132812 52.746094 C 18.546875 52.429688 18.011719 52.132812 17.457031 51.785156 C 16.886719 51.148438 16.535156 50.457031 16.410156 49.59375 C 16.363281 48.375 16.734375 47.386719 17.53125 46.539062 C 17.707031 46.351562 17.792969 46.046875 17.839844 45.78125 C 17.984375 44.976562 18.09375 44.167969 18.214844 43.359375 L 20.597656 38.292969 C 20.203125 37.867188 19.808594 37.441406 19.414062 37.015625 C 18.9375 35.816406 18.5 34.65625 18.035156 33.449219 C 18.035156 32.074219 17.824219 30.691406 18.132812 29.433594 C 18.90625 26.3125 21.300781 24.835938 24.25 24.203125 C 25.472656 23.9375 26.757812 23.964844 28.132812 23.859375 C 29.09375 23.925781 29.9375 23.953125 30.773438 24.0625 C 31.507812 24.160156 32.285156 24.222656 32.785156 24.972656 C 33.121094 26.175781 32.597656 26.890625 31.285156 26.992188 C 30.09375 26.875 28.960938 26.773438 27.765625 26.660156 C 26.660156 26.75 25.59375 26.742188 24.582031 26.976562 C 22.679688 27.417969 21.054688 28.359375 20.75 30.484375 C 20.605469 31.480469 20.90625 32.542969 21.019531 33.628906 C 21.425781 34.585938 21.816406 35.488281 22.175781 36.304688 C 24.070312 34.632812 25.890625 33.027344 27.753906 31.402344 C 28.664062 30.75 29.476562 30.027344 30.402344 29.511719 C 32.351562 28.425781 34.363281 27.453125 36.402344 26.417969 C 38.648438 25.503906 40.886719 24.769531 43.308594 24.34375 C 42.664062 23.25 42.027344 22.175781 41.007812 21.316406 C 40.792969 21.105469 40.597656 20.933594 40.402344 20.765625 C 39.097656 22.054688 37.652344 22.265625 36.019531 21.597656 C 34.539062 20.753906 33.914062 19.507812 34.011719 17.871094 C 34.386719 16.316406 35.257812 15.214844 36.902344 14.769531 C 38.136719 14.617188 39.222656 14.839844 40.1875 15.675781 M 46.046875 44.570312 C 46.171875 43.042969 46.300781 41.515625 46.457031 39.855469 C 46.429688 38.582031 46.402344 37.308594 46.394531 35.914062 C 46.226562 34.679688 46.058594 33.445312 45.890625 32.089844 C 45.621094 30.960938 45.351562 29.835938 45.082031 28.605469 L 44.378906 26.613281 C 43.785156 26.855469 43.300781 27.078125 42.796875 27.246094 C 42.203125 27.445312 41.59375 27.59375 40.878906 27.78125 C 38.726562 28.691406 36.578125 29.601562 34.328125 30.53125 C 30.234375 32.792969 26.519531 35.515625 23.734375 39.128906 C 24.3125 39.507812 24.820312 39.839844 25.363281 40.257812 C 25.945312 40.800781 26.523438 41.347656 27.148438 41.980469 C 28 42.65625 28.855469 43.335938 29.765625 44.085938 C 30.625 44.652344 31.480469 45.214844 32.410156 45.847656 C 33.277344 46.324219 34.144531 46.800781 35.09375 47.34375 C 35.941406 47.726562 36.785156 48.109375 37.703125 48.570312 C 38.757812 48.933594 39.8125 49.296875 40.953125 49.726562 L 45.304688 50.792969 C 44.847656 50.050781 44.960938 49.402344 45.121094 48.714844 C 45.441406 47.375 45.707031 46.023438 46.046875 44.570312 M 54.386719 49.15625 C 54.625 49.992188 55.308594 50.320312 55.78125 49.792969 C 55.957031 49.597656 56.085938 49.1875 56 48.964844 C 55.902344 48.703125 55.496094 48.339844 55.308594 48.386719 C 54.972656 48.460938 54.703125 48.8125 54.386719 49.15625 M 37.09375 18.960938 C 37.503906 19.285156 37.964844 19.289062 38.253906 18.894531 C 38.425781 18.660156 38.484375 18.164062 38.34375 17.933594 C 38.207031 17.707031 37.75 17.539062 37.453125 17.566406 C 36.875 17.621094 36.726562 18.167969 37.09375 18.960938 M 20.722656 49.679688 C 21.042969 49.132812 20.953125 48.679688 20.363281 48.425781 C 19.835938 48.203125 19.414062 48.441406 19.28125 48.957031 C 19.21875 49.203125 19.359375 49.707031 19.523438 49.765625 C 19.855469 49.886719 20.269531 49.777344 20.722656 49.679688 "/>
<path style=" stroke:none;fill-rule:nonzero;fill:rgb(0.392157%,54.901963%,69.803923%);fill-opacity:1;" d="M 33.960938 17.878906 C 33.914062 19.507812 34.539062 20.757812 36.011719 21.652344 C 35.214844 22.609375 34.414062 23.484375 33.585938 24.335938 C 33.359375 24.570312 33.046875 24.722656 32.773438 24.914062 C 32.285156 24.222656 31.507812 24.160156 30.773438 24.0625 C 29.9375 23.953125 29.09375 23.925781 28.195312 23.851562 C 28.238281 23.625 28.289062 23.367188 28.445312 23.207031 C 30.132812 21.496094 31.835938 19.800781 33.539062 18.109375 C 33.636719 18.011719 33.785156 17.960938 33.960938 17.878906 "/>
<path style=" stroke:none;fill-rule:nonzero;fill:rgb(0%,41.176471%,55.686277%);fill-opacity:1;" d="M 28.582031 52.875 C 29.230469 53.945312 29.871094 55.023438 30.527344 56.089844 C 30.691406 56.359375 30.894531 56.605469 31.097656 56.910156 C 30.875 57.113281 30.597656 57.230469 30.398438 57.429688 C 24.941406 62.875 19.488281 68.324219 14.042969 73.78125 C 13.890625 73.933594 13.777344 74.121094 13.632812 74.34375 C 13.035156 74.207031 12.421875 74.078125 11.867188 73.824219 C 10.917969 73.398438 10.003906 72.890625 9.074219 72.324219 C 9.21875 72.066406 9.34375 71.886719 9.5 71.730469 C 15.636719 65.585938 21.78125 59.445312 27.925781 53.308594 C 28.109375 53.125 28.363281 53.015625 28.582031 52.875 "/>
<path style=" stroke:none;fill-rule:nonzero;fill:rgb(0%,50.980395%,65.490198%);fill-opacity:1;" d="M 18.160156 43.367188 C 18.089844 44.175781 17.984375 44.980469 17.839844 45.78125 C 17.792969 46.046875 17.707031 46.351562 17.53125 46.539062 C 16.734375 47.386719 16.363281 48.375 16.363281 49.605469 C 16.0625 49.875 15.796875 50.050781 15.578125 50.273438 C 11.199219 54.644531 6.824219 59.019531 2.449219 63.390625 C 2.226562 63.613281 1.976562 63.8125 1.742188 64.019531 C 1.355469 62.890625 0.96875 61.757812 0.574219 60.566406 C 1.617188 59.5 2.671875 58.503906 3.710938 57.488281 C 4.746094 56.46875 5.765625 55.433594 6.792969 54.40625 C 7.714844 53.480469 8.644531 52.5625 9.566406 51.640625 C 10.574219 50.625 11.578125 49.609375 12.585938 48.597656 C 13.554688 47.621094 14.511719 46.625 15.511719 45.675781 C 16.347656 44.882812 17.238281 44.140625 18.160156 43.367188 "/>
<path style=" stroke:none;fill-rule:nonzero;fill:rgb(0.784314%,39.607844%,54.11765%);fill-opacity:1;" d="M 54.632812 31.492188 C 54.65625 32.988281 54.175781 34.355469 53.445312 35.609375 C 52.773438 36.757812 51.988281 37.84375 51.203125 38.917969 C 50.8125 39.453125 50.628906 39.976562 50.855469 40.664062 C 50.5625 40.925781 50.28125 41.140625 49.992188 41.335938 C 49.78125 41.480469 49.554688 41.609375 49.285156 41.746094 C 49.226562 39.960938 49.226562 38.171875 49.277344 36.386719 C 49.539062 36.140625 49.765625 35.992188 49.953125 35.808594 C 51.234375 34.539062 52.496094 33.253906 53.789062 31.996094 C 54.015625 31.773438 54.347656 31.65625 54.632812 31.496094 "/>
<path style=" stroke:none;fill-rule:nonzero;fill:rgb(0%,47.450981%,62.352943%);fill-opacity:1;" d="M 49.953125 23.992188 C 49.46875 23.960938 48.980469 23.933594 48.496094 23.890625 C 47.753906 23.824219 47.097656 23.972656 46.632812 24.679688 C 46.210938 23.886719 45.8125 23.136719 45.433594 22.296875 C 45.527344 22.109375 45.597656 22.007812 45.683594 21.921875 C 51.996094 15.605469 58.3125 9.292969 64.625 2.972656 C 64.828125 2.769531 65.003906 2.542969 65.191406 2.328125 C 66.125 2.902344 67.058594 3.46875 67.984375 4.054688 C 68.226562 4.207031 68.4375 4.40625 68.675781 4.675781 C 68.476562 5.035156 68.285156 5.316406 68.046875 5.554688 C 62.207031 11.40625 56.355469 17.246094 50.519531 23.101562 C 50.277344 23.34375 50.140625 23.691406 49.953125 23.992188 "/>
<path style=" stroke:none;fill-rule:nonzero;fill:rgb(0%,44.705883%,59.215689%);fill-opacity:1;" d="M 50.011719 24.007812 C 50.140625 23.691406 50.277344 23.34375 50.519531 23.101562 C 56.355469 17.246094 62.207031 11.40625 68.046875 5.554688 C 68.285156 5.316406 68.476562 5.035156 68.699219 4.722656 C 69.703125 5.75 70.671875 6.808594 71.605469 7.902344 C 71.421875 8.238281 71.246094 8.507812 71.027344 8.726562 C 65.699219 14.0625 60.371094 19.390625 55.035156 24.71875 C 54.777344 24.976562 54.492188 25.207031 54.222656 25.453125 C 52.925781 24.71875 51.546875 24.234375 50.011719 24.007812 "/>
<path style=" stroke:none;fill-rule:nonzero;fill:rgb(0%,41.568628%,56.470591%);fill-opacity:1;" d="M 54.257812 25.484375 C 54.492188 25.207031 54.777344 24.976562 55.035156 24.71875 C 60.371094 19.390625 65.703125 14.0625 71.027344 8.726562 C 71.246094 8.507812 71.421875 8.238281 71.628906 7.945312 C 72.367188 9.230469 73.097656 10.5625 73.789062 11.960938 C 73.5 12.222656 73.234375 12.394531 73.015625 12.613281 C 69.203125 16.414062 65.402344 20.222656 61.59375 24.023438 C 60.058594 25.554688 58.511719 27.070312 56.96875 28.59375 C 56.308594 27.367188 55.488281 26.28125 54.257812 25.484375 "/>
<path style=" stroke:none;fill-rule:nonzero;fill:rgb(0%,50.196081%,65.098041%);fill-opacity:1;" d="M 65.164062 2.285156 C 65.003906 2.542969 64.828125 2.769531 64.625 2.972656 C 58.3125 9.292969 51.996094 15.605469 45.683594 21.921875 C 45.597656 22.007812 45.527344 22.109375 45.421875 22.246094 C 44.640625 21.332031 43.878906 20.375 43.101562 19.375 C 43.316406 19.164062 43.582031 19.03125 43.78125 18.832031 C 49.535156 13.089844 55.28125 7.34375 61.023438 1.589844 C 61.210938 1.40625 61.347656 1.171875 61.519531 0.914062 C 62.730469 1.320312 63.933594 1.78125 65.164062 2.285156 "/>
<path style=" stroke:none;fill-rule:nonzero;fill:rgb(0%,39.215687%,53.725493%);fill-opacity:1;" d="M 56.972656 28.648438 C 58.511719 27.070312 60.058594 25.554688 61.59375 24.023438 C 65.402344 20.222656 69.203125 16.414062 73.015625 12.613281 C 73.234375 12.394531 73.5 12.222656 73.796875 12.015625 C 74.179688 13.042969 74.511719 14.082031 74.835938 15.175781 C 74.5625 15.4375 74.265625 15.609375 74.03125 15.84375 C 68.8125 21.050781 63.605469 26.265625 58.386719 31.46875 C 58.15625 31.703125 57.851562 31.859375 57.523438 32.050781 C 57.300781 30.9375 57.136719 29.820312 56.972656 28.648438 "/>
<path style=" stroke:none;fill-rule:nonzero;fill:rgb(0%,43.921569%,58.431375%);fill-opacity:1;" d="M 28.578125 52.816406 C 28.363281 53.015625 28.109375 53.125 27.925781 53.308594 C 21.78125 59.445312 15.636719 65.585938 9.5 71.730469 C 9.34375 71.886719 9.21875 72.066406 9.046875 72.285156 C 8.054688 71.636719 7.097656 70.929688 6.179688 70.175781 C 6.378906 69.820312 6.570312 69.535156 6.804688 69.296875 C 13.941406 62.15625 21.082031 55.019531 28.210938 47.875 C 28.476562 47.609375 28.660156 47.257812 28.882812 46.945312 C 29.882812 47.566406 30.882812 48.1875 31.894531 48.890625 C 31.496094 49.355469 31.085938 49.742188 30.679688 50.128906 C 30.355469 49.613281 29.964844 49.183594 29.296875 49.230469 C 28.574219 49.28125 28.230469 49.847656 27.898438 50.378906 C 27.820312 50.496094 27.90625 50.738281 27.957031 50.910156 C 28.152344 51.53125 28.367188 52.144531 28.578125 52.816406 "/>
<path style=" stroke:none;fill-rule:nonzero;fill:rgb(0%,45.882353%,60.784316%);fill-opacity:1;" d="M 28.851562 46.910156 C 28.660156 47.257812 28.476562 47.609375 28.210938 47.875 C 21.082031 55.019531 13.941406 62.15625 6.804688 69.296875 C 6.570312 69.535156 6.378906 69.820312 6.15625 70.132812 C 5.496094 69.503906 4.871094 68.835938 4.285156 68.132812 C 4.460938 67.871094 4.664062 67.625 4.886719 67.40625 C 9.46875 62.824219 14.050781 58.246094 18.621094 53.65625 C 18.863281 53.410156 19.003906 53.0625 19.191406 52.765625 C 22.144531 53.339844 24.316406 50.640625 23.609375 48.105469 C 24.617188 47.085938 25.582031 46.132812 26.542969 45.183594 C 27.300781 45.746094 28.0625 46.3125 28.851562 46.910156 "/>
<path style=" stroke:none;fill-rule:nonzero;fill:rgb(0%,49.019608%,63.529414%);fill-opacity:1;" d="M 1.75 64.074219 C 1.980469 63.8125 2.226562 63.613281 2.449219 63.390625 C 6.828125 59.019531 11.199219 54.644531 15.578125 50.273438 C 15.796875 50.050781 16.0625 49.875 16.351562 49.667969 C 16.535156 50.457031 16.886719 51.148438 17.414062 51.8125 C 17.15625 52.097656 16.914062 52.300781 16.691406 52.527344 C 12.417969 56.796875 8.148438 61.070312 3.867188 65.332031 C 3.566406 65.628906 3.164062 65.820312 2.808594 66.0625 C 2.457031 65.417969 2.109375 64.773438 1.75 64.074219 "/>
<path style=" stroke:none;fill-rule:nonzero;fill:rgb(0%,47.450981%,62.352943%);fill-opacity:1;" d="M 2.816406 66.113281 C 3.164062 65.820312 3.566406 65.628906 3.867188 65.332031 C 8.148438 61.070312 12.417969 56.796875 16.691406 52.527344 C 16.914062 52.300781 17.15625 52.097656 17.433594 51.859375 C 18.011719 52.132812 18.546875 52.429688 19.132812 52.746094 C 19.003906 53.0625 18.863281 53.410156 18.621094 53.65625 C 14.050781 58.246094 9.46875 62.824219 4.886719 67.40625 C 4.679688 67.609375 4.488281 67.832031 4.265625 68.085938 C 3.769531 67.476562 3.296875 66.820312 2.816406 66.113281 "/>
<path style=" stroke:none;fill-rule:nonzero;fill:rgb(0.392157%,47.450981%,61.960787%);fill-opacity:1;" d="M 40.992188 27.765625 C 41.59375 27.59375 42.203125 27.445312 42.796875 27.246094 C 43.300781 27.078125 43.785156 26.855469 44.378906 26.613281 C 44.582031 27.183594 44.832031 27.894531 45.03125 28.660156 C 44.761719 28.859375 44.507812 28.964844 44.328125 29.144531 C 42.289062 31.167969 40.257812 33.199219 38.234375 35.238281 C 38.050781 35.421875 37.9375 35.667969 37.734375 35.902344 C 35.617188 36.234375 34.855469 37.085938 34.753906 39.117188 C 34.398438 39.304688 34.046875 39.441406 33.796875 39.683594 C 32.625 40.816406 31.476562 41.96875 30.339844 43.132812 C 30.089844 43.390625 29.917969 43.71875 29.707031 44.011719 C 28.855469 43.335938 28 42.65625 27.167969 41.910156 C 31.683594 37.359375 36.179688 32.878906 40.667969 28.386719 C 40.824219 28.230469 40.886719 27.976562 40.992188 27.765625 "/>
<path style=" stroke:none;fill-rule:nonzero;fill:rgb(0.392157%,49.411765%,63.921571%);fill-opacity:1;" d="M 40.9375 27.773438 C 40.886719 27.976562 40.824219 28.230469 40.667969 28.386719 C 36.167969 32.886719 31.660156 37.382812 27.148438 41.867188 C 26.523438 41.347656 25.945312 40.800781 25.371094 40.167969 C 26.695312 38.742188 28.011719 37.398438 29.335938 36.0625 C 30.863281 34.523438 32.410156 33.003906 33.921875 31.449219 C 34.160156 31.203125 34.261719 30.824219 34.425781 30.507812 C 36.578125 29.601562 38.726562 28.691406 40.9375 27.773438 "/>
<path style=" stroke:none;fill-rule:nonzero;fill:rgb(0.392157%,43.137255%,57.647061%);fill-opacity:1;" d="M 35.011719 47.28125 C 34.144531 46.800781 33.277344 46.324219 32.398438 45.765625 C 33.539062 44.496094 34.695312 43.316406 35.832031 42.117188 C 36.039062 41.902344 36.164062 41.605469 36.382812 41.359375 C 36.738281 41.449219 37.035156 41.578125 37.339844 41.601562 C 39.628906 41.777344 40.988281 39.855469 40.289062 37.488281 C 41.875 35.941406 43.410156 34.414062 44.960938 32.90625 C 45.238281 32.636719 45.578125 32.441406 45.886719 32.210938 C 46.058594 33.445312 46.226562 34.679688 46.335938 35.976562 C 46.023438 36.167969 45.726562 36.25 45.535156 36.4375 C 42.15625 39.796875 38.785156 43.167969 35.425781 46.546875 C 35.234375 46.738281 35.144531 47.035156 35.011719 47.28125 "/>
<path style=" stroke:none;fill-rule:nonzero;fill:rgb(0%,41.176471%,55.686277%);fill-opacity:1;" d="M 35.054688 47.3125 C 35.144531 47.035156 35.234375 46.738281 35.425781 46.546875 C 38.785156 43.167969 42.15625 39.796875 45.535156 36.4375 C 45.726562 36.25 46.023438 36.167969 46.324219 36.035156 C 46.402344 37.308594 46.429688 38.582031 46.390625 39.933594 C 46.101562 40.191406 45.859375 40.351562 45.65625 40.554688 C 43.503906 42.695312 41.363281 44.847656 39.210938 46.992188 C 38.695312 47.503906 38.160156 47.992188 37.628906 48.492188 C 36.785156 48.109375 35.941406 47.726562 35.050781 47.3125 "/>
<path style=" stroke:none;fill-rule:nonzero;fill:rgb(0.784314%,54.11765%,69.01961%);fill-opacity:1;" d="M 27.832031 26.675781 C 28.960938 26.773438 30.09375 26.875 31.28125 27.039062 C 31.179688 27.339844 31.046875 27.605469 30.851562 27.804688 C 29.953125 28.726562 29.019531 29.617188 28.132812 30.554688 C 27.921875 30.777344 27.847656 31.128906 27.707031 31.421875 L 22.175781 36.304688 C 21.816406 35.488281 21.425781 34.585938 21.070312 33.605469 C 21.183594 33.472656 21.273438 33.425781 21.34375 33.359375 C 23.410156 31.296875 25.476562 29.234375 27.539062 27.164062 C 27.667969 27.03125 27.734375 26.839844 27.832031 26.675781 "/>
<path style=" stroke:none;fill-rule:nonzero;fill:rgb(0.784314%,52.549022%,67.450982%);fill-opacity:1;" d="M 27.753906 31.402344 C 27.847656 31.128906 27.921875 30.777344 28.132812 30.554688 C 29.019531 29.617188 29.953125 28.726562 30.851562 27.804688 C 31.046875 27.605469 31.179688 27.339844 31.34375 27.058594 C 32.597656 26.890625 33.121094 26.175781 32.785156 24.972656 C 33.046875 24.722656 33.359375 24.570312 33.585938 24.335938 C 34.414062 23.484375 35.214844 22.609375 36.039062 21.691406 C 37.652344 22.265625 39.097656 22.054688 40.402344 20.765625 C 40.597656 20.933594 40.792969 21.105469 40.980469 21.359375 C 39.59375 22.847656 38.203125 24.242188 36.832031 25.65625 C 36.625 25.871094 36.507812 26.171875 36.351562 26.433594 C 34.363281 27.453125 32.351562 28.425781 30.402344 29.511719 C 29.476562 30.027344 28.664062 30.75 27.753906 31.402344 "/>
<path style=" stroke:none;fill-rule:nonzero;fill:rgb(0.392157%,39.215687%,53.725493%);fill-opacity:1;" d="M 37.667969 48.53125 C 38.160156 47.992188 38.695312 47.503906 39.210938 46.992188 C 41.363281 44.847656 43.503906 42.695312 45.65625 40.554688 C 45.859375 40.351562 46.105469 40.191406 46.375 40 C 46.300781 41.515625 46.171875 43.042969 45.96875 44.632812 C 45.628906 44.863281 45.332031 44.992188 45.113281 45.207031 C 43.871094 46.425781 42.636719 47.65625 41.417969 48.902344 C 41.199219 49.121094 41.050781 49.402344 40.871094 49.660156 C 39.8125 49.296875 38.757812 48.933594 37.667969 48.53125 "/>
<path style=" stroke:none;fill-rule:nonzero;fill:rgb(0.392157%,45.09804%,60.000002%);fill-opacity:1;" d="M 45.890625 32.148438 C 45.578125 32.441406 45.234375 32.636719 44.960938 32.90625 C 43.410156 34.414062 41.875 35.941406 40.253906 37.457031 C 39.683594 36.464844 38.796875 36.085938 37.792969 35.886719 C 37.9375 35.667969 38.050781 35.421875 38.234375 35.238281 C 40.257812 33.199219 42.289062 31.167969 44.328125 29.144531 C 44.507812 28.964844 44.761719 28.859375 45.03125 28.714844 C 45.351562 29.835938 45.621094 30.960938 45.890625 32.148438 "/>
<path style=" stroke:none;fill-rule:nonzero;fill:rgb(1.176471%,41.960785%,56.470591%);fill-opacity:1;" d="M 54.648438 31.429688 C 54.347656 31.65625 54.015625 31.773438 53.789062 31.996094 C 52.496094 33.253906 51.234375 34.539062 49.953125 35.808594 C 49.765625 35.992188 49.539062 36.140625 49.285156 36.316406 C 49.066406 34.832031 48.898438 33.339844 48.785156 31.84375 C 50.144531 30.464844 51.457031 29.167969 52.765625 27.875 C 53.972656 28.726562 54.726562 29.824219 54.648438 31.429688 "/>
<path style=" stroke:none;fill-rule:nonzero;fill:rgb(0.784314%,36.470589%,50.980395%);fill-opacity:1;" d="M 39.554688 52.277344 L 43.507812 53.273438 C 42.554688 54.394531 41.742188 55.523438 40.753906 56.472656 C 39.230469 57.9375 37.113281 58.324219 35.195312 56.882812 C 35.34375 56.757812 35.492188 56.707031 35.589844 56.609375 C 36.824219 55.386719 38.0625 54.160156 39.277344 52.914062 C 39.429688 52.757812 39.464844 52.492188 39.554688 52.277344 "/>
<path style=" stroke:none;fill-rule:nonzero;fill:rgb(0.392157%,38.431373%,52.941179%);fill-opacity:1;" d="M 39.519531 52.238281 C 39.464844 52.492188 39.429688 52.757812 39.277344 52.914062 C 38.0625 54.160156 36.824219 55.386719 35.589844 56.609375 C 35.492188 56.707031 35.34375 56.757812 35.167969 56.839844 C 34.308594 56 33.5 55.148438 32.703125 54.203125 C 33.480469 53.335938 34.257812 52.566406 35.003906 51.777344 C 35.28125 51.484375 35.5 51.140625 35.746094 50.816406 C 36.992188 51.277344 38.238281 51.738281 39.519531 52.238281 "/>
<path style=" stroke:none;fill-rule:nonzero;fill:rgb(0.784314%,56.470591%,70.980394%);fill-opacity:1;" d="M 27.765625 26.660156 C 27.734375 26.839844 27.667969 27.03125 27.539062 27.164062 C 25.476562 29.234375 23.410156 31.296875 21.34375 33.359375 C 21.273438 33.425781 21.183594 33.472656 21.054688 33.550781 C 20.90625 32.542969 20.605469 31.480469 20.75 30.484375 C 21.054688 28.359375 22.679688 27.417969 24.582031 26.976562 C 25.59375 26.742188 26.660156 26.75 27.765625 26.660156 "/>
<path style=" stroke:none;fill-rule:nonzero;fill:rgb(0.392157%,45.09804%,59.607846%);fill-opacity:1;" d="M 36.328125 41.347656 C 36.164062 41.605469 36.039062 41.902344 35.832031 42.117188 C 34.695312 43.316406 33.539062 44.496094 32.363281 45.734375 C 31.480469 45.214844 30.625 44.652344 29.738281 44.050781 C 29.914062 43.71875 30.089844 43.390625 30.339844 43.132812 C 31.476562 41.96875 32.625 40.816406 33.796875 39.683594 C 34.046875 39.441406 34.398438 39.304688 34.773438 39.171875 C 35.003906 40.164062 35.511719 40.863281 36.328125 41.347656 "/>
<path style=" stroke:none;fill-rule:nonzero;fill:rgb(1.176471%,51.372552%,65.882355%);fill-opacity:1;" d="M 34.378906 30.519531 C 34.261719 30.824219 34.160156 31.203125 33.921875 31.449219 C 32.410156 33.003906 30.863281 34.523438 29.335938 36.0625 C 28.003906 37.410156 26.671875 38.765625 25.351562 40.125 C 24.820312 39.839844 24.3125 39.507812 23.734375 39.128906 C 26.519531 35.515625 30.234375 32.792969 34.378906 30.519531 "/>
<path style=" stroke:none;fill-rule:nonzero;fill:rgb(1.176471%,44.705883%,58.823532%);fill-opacity:1;" d="M 52.730469 27.839844 C 51.457031 29.167969 50.144531 30.464844 48.789062 31.78125 C 48.316406 30.089844 47.894531 28.378906 47.457031 26.621094 C 49.277344 26.730469 51.082031 26.828125 52.730469 27.839844 "/>
<path style=" stroke:none;fill-rule:nonzero;fill:rgb(1.176471%,38.039216%,52.156866%);fill-opacity:1;" d="M 40.910156 49.691406 C 41.050781 49.402344 41.199219 49.121094 41.417969 48.902344 C 42.636719 47.65625 43.871094 46.425781 45.113281 45.207031 C 45.332031 44.992188 45.628906 44.863281 45.941406 44.6875 C 45.707031 46.023438 45.441406 47.375 45.121094 48.714844 C 44.960938 49.402344 44.847656 50.050781 45.304688 50.792969 C 43.851562 50.4375 42.402344 50.082031 40.910156 49.691406 "/>
<path style=" stroke:none;fill-rule:nonzero;fill:rgb(1.176471%,41.960785%,56.470591%);fill-opacity:1;" d="M 35.714844 50.777344 C 35.5 51.140625 35.28125 51.484375 35.003906 51.777344 C 34.257812 52.566406 33.480469 53.335938 32.691406 54.15625 C 32.015625 52.875 31.363281 51.554688 30.695312 50.179688 C 31.085938 49.742188 31.496094 49.355469 31.929688 48.925781 C 33.195312 49.5 34.4375 50.117188 35.714844 50.777344 "/>
<path style=" stroke:none;fill-rule:nonzero;fill:rgb(1.176471%,51.372552%,65.882355%);fill-opacity:1;" d="M 36.402344 26.417969 C 36.507812 26.171875 36.625 25.871094 36.832031 25.65625 C 38.203125 24.242188 39.59375 22.847656 41.003906 21.40625 C 42.027344 22.175781 42.664062 23.25 43.308594 24.34375 C 40.886719 24.769531 38.648438 25.503906 36.402344 26.417969 "/>
<path style=" stroke:none;fill-rule:nonzero;fill:rgb(0.784314%,48.235294%,63.137257%);fill-opacity:1;" d="M 26.515625 45.144531 C 25.582031 46.132812 24.617188 47.085938 23.605469 48.046875 C 23.175781 47.242188 22.730469 46.488281 21.84375 46 C 21.910156 45.730469 21.949219 45.523438 22.074219 45.398438 C 22.808594 44.660156 23.558594 43.941406 24.300781 43.21875 C 25.03125 43.847656 25.761719 44.476562 26.515625 45.144531 "/>
<path style=" stroke:none;fill-rule:nonzero;fill:rgb(1.960784%,50.588238%,65.098041%);fill-opacity:1;" d="M 24.277344 43.175781 C 23.558594 43.941406 22.808594 44.660156 22.074219 45.398438 C 21.949219 45.523438 21.910156 45.730469 21.824219 45.957031 C 21.460938 45.867188 21.105469 45.726562 20.699219 45.570312 C 20.84375 43.925781 21.511719 42.484375 22.339844 41.152344 C 22.996094 41.835938 23.625 42.484375 24.277344 43.175781 "/>
<path style=" stroke:none;fill-rule:nonzero;fill:rgb(5.098039%,34.901962%,48.627451%);fill-opacity:1;" d="M 54.394531 49.101562 C 54.703125 48.8125 54.972656 48.460938 55.308594 48.386719 C 55.496094 48.339844 55.902344 48.703125 56 48.964844 C 56.085938 49.1875 55.957031 49.597656 55.78125 49.792969 C 55.308594 50.320312 54.625 49.992188 54.394531 49.101562 "/>
<path style=" stroke:none;fill-rule:nonzero;fill:rgb(4.313726%,56.470591%,70.588237%);fill-opacity:1;" d="M 37.058594 18.921875 C 36.726562 18.167969 36.875 17.621094 37.453125 17.566406 C 37.75 17.539062 38.207031 17.707031 38.34375 17.933594 C 38.484375 18.164062 38.425781 18.660156 38.253906 18.894531 C 37.964844 19.289062 37.503906 19.285156 37.058594 18.921875 "/>
<path style=" stroke:none;fill-rule:nonzero;fill:rgb(1.960784%,50.588238%,65.098041%);fill-opacity:1;" d="M 20.683594 49.722656 C 20.265625 49.777344 19.855469 49.886719 19.523438 49.765625 C 19.359375 49.707031 19.21875 49.203125 19.28125 48.957031 C 19.414062 48.441406 19.835938 48.203125 20.359375 48.425781 C 20.953125 48.679688 21.042969 49.132812 20.683594 49.722656 "/>
<path style=" stroke:none;fill-rule:nonzero;fill:rgb(98.823529%,99.215686%,99.607843%);fill-opacity:1;" d="M 36.382812 41.359375 C 35.511719 40.863281 35.003906 40.164062 34.820312 39.164062 C 34.855469 37.085938 35.617188 36.234375 37.734375 35.902344 C 38.796875 36.085938 39.683594 36.464844 40.207031 37.480469 C 40.988281 39.855469 39.628906 41.777344 37.339844 41.601562 C 37.035156 41.578125 36.738281 41.449219 36.382812 41.359375 "/>
</g>
</svg>
